<svg xmlns="http://www.w3.org/2000/svg" viewBox="0 0 262.48 107.35"><defs><style>.cls-1{fill:#afafaf;}</style></defs><title>Recurso 4</title><g id="Capa_2" data-name="Capa 2"><g id="Capa_1-2" data-name="Capa 1"><path id="Trazado_55" data-name="Trazado 55" class="cls-1" d="M221.85,105.2c-.22-.2-.26-.35,0-.59a4.59,4.59,0,0,0,.66-1.11,6.33,6.33,0,0,0,.44-4.26,5.81,5.81,0,0,0-1.81-3.1,6.86,6.86,0,0,0-3.64-1.57c-.24-.06-.49,0-.72-.06h-.23c-.24.1-.49,0-.72.06a7.12,7.12,0,0,0-3.64,1.58,5.92,5.92,0,0,0-1.62,2.27,6.63,6.63,0,0,0,1.31,6.69,5.82,5.82,0,0,0,3.8,1.85,6.59,6.59,0,0,0,3.89-.57c.11-.06.25-.18.38,0a6.09,6.09,0,0,1,.72.95h.61a2,2,0,0,1,.72-.19,11,11,0,0,0,1.62-.3C223,106.27,222.42,105.72,221.85,105.2Zm-2.54-2.66c-.4-1-1.16-.88-2-.73-.53.1-1.06.15-1.54.21l1.7,1.8a3,3,0,0,1-3.49-1.13,3.16,3.16,0,0,1,.39-4.33,3.25,3.25,0,0,1,4.49.09,3.11,3.11,0,0,1,.42,4.09Z"/><path id="Trazado_57" data-name="Trazado 57" class="cls-1" d="M89.81,24h8.42c.7,0,.7,0,.74.69.08.35,0,.71.07,1.06v.52c.08.17,0,.37.07.54l0,.34c.07.14,0,.31.07.44a18.4,18.4,0,0,0,.82,4.1,26.91,26.91,0,0,0,4.23,8.57,27.91,27.91,0,0,0,5.14,5.33,27.19,27.19,0,0,0,9.23,4.82,26.76,26.76,0,0,0,4.61.95,8.47,8.47,0,0,0,1.13.07c.23.1.48,0,.71.07a28.25,28.25,0,0,0,2.91,0c.23-.07.48,0,.7-.07h.44c.15-.07.31,0,.46-.07a21.25,21.25,0,0,0,4.93-1,26.51,26.51,0,0,0,7.42-3.58c.92-.64,1.81-1.32,2.66-2A24.18,24.18,0,0,0,147,42.5a25.41,25.41,0,0,0,3.48-4.81,28.4,28.4,0,0,0,1.87-3.94,25,25,0,0,0,1-3.49c.2-1,.4-1.91.52-2.87.09-.14,0-.31.06-.45l0-.41c.08-.18,0-.38.06-.56l0-.78c.13-.37-.05-.78.1-1.15h9.12c.11.14.05.31.05.47V64.93c0,.5,0,.5-.5.5h-8.27c-.14,0-.29.06-.42-.06q0-8.46,0-16.92c0-.1.06-.23-.05-.28s-.23.11-.3.19a37.36,37.36,0,0,1-18.48,10.69,41.84,41.84,0,0,1-4.58.82c-.15.06-.32,0-.47.06l-.5,0c-.2.07-.42,0-.62.06l-.7,0c-.56.07-1.14,0-1.7.06h-.38c-.56-.1-1.13,0-1.7-.06l-.76,0c-.18-.08-.38,0-.56-.06l-.5,0c-.15-.08-.31,0-.47-.06a34,34,0,0,1-6-1.14,37.32,37.32,0,0,1-12.21-6A37.37,37.37,0,0,1,99,48.15c-.23.1-.11.31-.11.46q0,5.43,0,10.86c0,1.83,0,3.67,0,5.5,0,.35-.06.48-.45.48-2.75,0-5.51,0-8.26,0-.33,0-.45-.07-.45-.43q0-20.29,0-40.59C89.76,24.29,89.71,24.15,89.81,24Z"/><path id="Trazado_58" data-name="Trazado 58" class="cls-1" d="M124.91,48.07l-.53,0c-.16-.1-.36,0-.53-.07a23.86,23.86,0,0,1-5.28-1.17,23.36,23.36,0,0,1-5.95-3,25.08,25.08,0,0,1-2.81-2.34,23.94,23.94,0,0,1-4.23-5.32A24.43,24.43,0,0,1,103,29.75a15.92,15.92,0,0,1-.48-2.91c-.06-.14,0-.31-.06-.45l0-.52c-.07-.26,0-.53-.07-.79V23c.1-.26,0-.54.07-.8a22.56,22.56,0,0,1,1.34-6.34,24,24,0,0,1,3.53-6.45,22.84,22.84,0,0,1,2.8-3.09A24.14,24.14,0,0,1,121.36.53c.94-.2,1.89-.31,2.84-.45.15,0,.32,0,.46-.06h.78a.77.77,0,0,1,0,.3q0,3.72,0,7.45c0,.25,0,.42-.33.43a14,14,0,0,0-4.1.88,15.44,15.44,0,0,0-5.41,3.29,15.92,15.92,0,0,0-4.79,8.45,5.28,5.28,0,0,0-.2,1.63c-.1.17,0,.36-.06.53a13.64,13.64,0,0,0,0,2.12c.07.18,0,.37.06.54a13.56,13.56,0,0,0,1.19,4.73,15.35,15.35,0,0,0,3.74,5.31,15.78,15.78,0,0,0,7.91,4,5.63,5.63,0,0,0,1.42.17c.57.09.57.09.57.71v7C125.47,48.12,125.47,48.12,124.91,48.07Z"/><path id="Trazado_59" data-name="Trazado 59" class="cls-1" d="M150.59,21.93l0,.53c.09.37,0,.77.07,1.14v.87c-.11.38,0,.76-.07,1.14,0,.2,0,.41,0,.61s0,.3-.07.45a24.2,24.2,0,0,1-2.68,8.66,23.49,23.49,0,0,1-3.75,5.2,23.33,23.33,0,0,1-4.23,3.58,23.72,23.72,0,0,1-8.33,3.49,18,18,0,0,1-2.41.38c-.14.07-.3,0-.44.07l-.53,0a1,1,0,0,1-.61,0V40c.16-.15.38,0,.54-.1a13.32,13.32,0,0,0,4.31-1A15.74,15.74,0,0,0,137,36a15.51,15.51,0,0,0,5.19-8.92c.11-.55.19-1.11.25-1.67.1-.19,0-.42.07-.62v-1.6c-.07-.2,0-.42-.06-.61a16,16,0,0,0-3.66-8.79,15.76,15.76,0,0,0-4.48-3.68,16.21,16.21,0,0,0-4.89-1.77,9.08,9.08,0,0,0-1.47-.18c-.33,0-.38-.13-.37-.41,0-1.58,0-3.16,0-4.75,0-.83,0-1.67,0-2.5,0-.41.08-.61.52-.52h.27c.16.1.35,0,.52.07A24.29,24.29,0,0,1,138,2.9a23.65,23.65,0,0,1,6.32,4.93,24,24,0,0,1,5.87,11.64c.13.67.21,1.35.31,2C150.59,21.63,150.5,21.79,150.59,21.93Z"/><path id="Trazado_60" data-name="Trazado 60" class="cls-1" d="M186.13,73.13c.26,1.68.53,3.37.78,5.05.22,1.49.41,3,.64,4.47s.5,3.28.77,4.92c.14.87.17.86-.69.86H185c-.7,0-.69,0-.75-.68-.08-1.15-.29-2.29-.41-3.44s-.31-2.08-.38-3.14a10.79,10.79,0,0,0-.21-1.34,10.8,10.8,0,0,0-.67,1.52q-1.46,3.42-2.88,6.85c-.08.17-.17.26-.36.23h0c-.44,0-1,.14-1.29-.06s-.35-.75-.51-1.15L175,81a8.81,8.81,0,0,0-.5-1.13c-.08.46-.15.91-.22,1.37-.2,1.33-.41,2.66-.6,4-.13.88-.26,1.77-.36,2.66-.05.37-.14.57-.59.56-1,0-2.09,0-3.13,0-.32,0-.36-.15-.32-.38.11-.72.24-1.44.37-2.16s.29-1.57.42-2.35c.17-1,.32-1.92.48-2.88s.31-2,.48-3,.41-2.19.6-3.29c.08-.4.13-.81.19-1.22.06-.09.15-.06.24-.06h3.56c.08,0,.18,0,.23.07.27,1,.72,2,1.08,3,.59,1.63,1.23,3.25,1.85,4.87,0,0,.06.06.12.14l3.22-8c.05-.1.14-.08.23-.08h3.6A.29.29,0,0,1,186.13,73.13Z"/><path id="Trazado_61" data-name="Trazado 61" class="cls-1" d="M47.83,73.14c.13,1,.26,1.89.4,2.84.16,1.11.32,2.23.49,3.35s.31,2.08.46,3.13.34,2.17.5,3.25c.13.83.23,1.66.36,2.49,0,.19,0,.24-.2.24-1.16,0-2.31,0-3.47,0-.36,0-.35-.25-.37-.46-.12-1.11-.28-2.21-.42-3.31-.1-.82-.21-1.64-.28-2.46s-.23-1.58-.29-2.47a6.69,6.69,0,0,0-.62,1.36Q43,84.48,41.56,87.86c-.16.4-.34.61-.83.59-1.1,0-1.11,0-1.5-1-.83-2.21-1.72-4.4-2.63-6.59-.11-.27-.19-.57-.32-.84-.22,0-.19.24-.21.34-.2,1.27-.36,2.55-.55,3.82s-.41,2.74-.61,4.12c0,.16-.1.18-.23.18H30.91c.16-1.05.31-2.08.49-3.11s.37-1.94.53-2.92.34-2.21.52-3.31.36-1.92.53-2.87c.13-.76.23-1.51.36-2.27,0-.27.11-.55.16-.82a13.88,13.88,0,0,1,2.14,0,10.07,10.07,0,0,1,1.82,0l3,7.94h.11l3.21-8c1.31,0,2.62,0,3.93,0C47.77,73.08,47.8,73.12,47.83,73.14Z"/><path id="Trazado_62" data-name="Trazado 62" class="cls-1" d="M167.42,79.82c0-.2-.07-.4-.11-.6a8,8,0,0,0-2-3.89,8.67,8.67,0,0,0-5.85-2.66,4.7,4.7,0,0,0-1.06,0l-.81.1a8,8,0,0,0-4.59,2,7.74,7.74,0,0,0-2.53,5c-.08.2,0,.43-.07.63v.83c.09.19,0,.38.06.56A7.71,7.71,0,0,0,151,84a7.58,7.58,0,0,0,2.74,3.46A8.21,8.21,0,0,0,158.25,89a8.3,8.3,0,0,0,1.41,0,13.54,13.54,0,0,0,1.65-.28,8.39,8.39,0,0,0,4-2.31,8.07,8.07,0,0,0,2.11-4.56c.05-.15,0-.32.06-.47v-1C167.39,80.18,167.49,80,167.42,79.82ZM159,85.1a4.27,4.27,0,1,1,0-8.54h0a4.27,4.27,0,1,1,0,8.54Z"/><path id="Trazado_63" data-name="Trazado 63" class="cls-1" d="M253.62,81.3c0-.32,0-.63,0-.94s0-.37-.06-.55-.07-.37-.11-.55a7.84,7.84,0,0,0-2.8-4.71,8.77,8.77,0,0,0-5-1.88,4.61,4.61,0,0,0-1.05,0c-.49.06-1,.1-1.46.2a7.93,7.93,0,0,0-5.65,4.2,7.2,7.2,0,0,0-.83,3.18,5.43,5.43,0,0,0,0,1.14,7.73,7.73,0,0,0,.83,3.16,7.56,7.56,0,0,0,3.48,3.52,9.69,9.69,0,0,0,4.86.91l.77-.11a8.24,8.24,0,0,0,4.82-2.41,8,8,0,0,0,2.17-4.63C253.61,81.66,253.52,81.46,253.62,81.3Zm-8.51,3.8a4.27,4.27,0,1,1,4.29-4.32v0a4.27,4.27,0,0,1-4.24,4.29Z"/><path id="Trazado_64" data-name="Trazado 64" class="cls-1" d="M151.61,106.3c-.91-2.37-1.8-4.74-2.7-7.11L147.34,95a.34.34,0,0,0-.12-.06h-3c-.12,0-.23,0-.29.14l-4.37,11.32c-1.18-1.54-2.32-3-3.46-4.53a3,3,0,0,0,1.73-1,3.76,3.76,0,0,0,.67-3.36,3,3,0,0,0-1-1.67,4.69,4.69,0,0,0-2.8-.89c-1.39-.06-2.76,0-4.15,0a1,1,0,0,0-.51,0v11.62a19.83,19.83,0,0,0,2,0,2.8,2.8,0,0,0,1,0v-4.19c.2.06.22.22.29.33.85,1.31,1.69,2.6,2.53,3.91,2.21,0,4.43,0,6.65,0a.29.29,0,0,0,.2,0c.24-.6.48-1.2.7-1.81.07-.19.2-.13.32-.13h3.64a.35.35,0,0,1,.38.27l.6,1.68a.29.29,0,0,0,.2,0h2.92c.08,0,.18,0,.21-.09S151.64,106.37,151.61,106.3Zm-17.3-6.24c-1.16.28-1.24.22-1.24-.92V98.7c0-.36,0-.73,0-1.1s.1-.35.35-.33a5.51,5.51,0,0,1,.91.1,1.28,1.28,0,0,1,1.1,1.37,1.26,1.26,0,0,1-1.11,1.32Zm10.08,2.17c.4-1.21.8-2.39,1.24-3.7.42,1.3.82,2.48,1.22,3.7Z"/><path id="Trazado_65" data-name="Trazado 65" class="cls-1" d="M117.51,81.21c0-.29,0-.57,0-.85s0-.31-.06-.46-.11-.53-.17-.8a7.74,7.74,0,0,0-7.06-6c-2,0-4,0-5.94,0-.22,0-.27.1-.27.29,0,.63,0,1.26,0,1.89V88c0,.51,0,.51.49.51h1.45c1.45,0,2.9,0,4.35,0a7.65,7.65,0,0,0,5.81-3.33,8.09,8.09,0,0,0,1.34-3.38C117.51,81.57,117.41,81.38,117.51,81.21Zm-6.22,3.28a5.6,5.6,0,0,1-3.07.55c-.26,0-.2-.2-.2-.35v-4c0-1.29,0-2.58,0-3.86,0-.32.08-.42.39-.39.48,0,1,0,1.44.11a4,4,0,0,1,3.44,3.64,4.17,4.17,0,0,1-2,4.26Z"/><path id="Trazado_66" data-name="Trazado 66" class="cls-1" d="M214.6,88l-4.25-5.55c-.17-.22-.22-.28.1-.38a4.09,4.09,0,0,0,3-3.67,3.09,3.09,0,0,0,0-1,4.49,4.49,0,0,0-.1-.64,4.24,4.24,0,0,0-1.53-2.63,5.67,5.67,0,0,0-3.13-1.07c-2.13,0-4.26,0-6.38,0a.2.2,0,0,0-.13,0c0,5,0,10,0,14.93,0,.29.06.39.38.39,1.2,0,2.4,0,3.6,0a1.15,1.15,0,0,0,0-.49c0-1.57,0-3.15,0-4.73,0-.13-.11-.33.1-.41q1.77,2.72,3.53,5.44a.33.33,0,0,0,.32.18h4.78Zm-6.42-8.28a6.1,6.1,0,0,1-1.81.27c-.23,0-.22-.12-.22-.28V78.09c0-.53,0-1,0-1.58,0-.26.08-.32.32-.31a5.28,5.28,0,0,1,1.72.26,1.62,1.62,0,0,1,1.16,1.63,1.64,1.64,0,0,1-1.17,1.63Z"/><path id="Trazado_67" data-name="Trazado 67" class="cls-1" d="M76.87,82.14c.29-.1.54-.16.77-.26a4,4,0,0,0,2.5-3.13c.06-.14,0-.31.06-.45v-.76c-.08-.14,0-.31-.06-.45a4.8,4.8,0,0,0-1.09-2.44,5.13,5.13,0,0,0-3.59-1.54,1.6,1.6,0,0,0-.44,0H69.4c-.49,0-.49,0-.49.5V88a1.08,1.08,0,0,0,0,.44c1.16,0,2.32,0,3.47,0,.38,0,.53-.07.51-.49,0-.95,0-1.9,0-2.86V82.65c.23.38.42.66.6.94l3,4.58c.08.11.11.28.34.27h4.82Zm-1.7-2.54a5.35,5.35,0,0,1-2.1.37c-.22,0-.16-.16-.16-.27V78.07c0-.53,0-1.06,0-1.58,0-.24.07-.3.29-.29a4.72,4.72,0,0,1,1.93.35A1.54,1.54,0,0,1,76.06,78,1.62,1.62,0,0,1,75.17,79.6Z"/><path id="Trazado_68" data-name="Trazado 68" class="cls-1" d="M29.79,88.25c-1.57-4.16-3.15-8.32-4.7-12.47a24.38,24.38,0,0,1-.93-2.55c-.09-.21-.27-.14-.42-.14q-1.86,0-3.72,0c-.11,0-.24,0-.33,0l-.33.83c-.48,1.22-1,2.44-1.43,3.66s-.85,2.29-1.28,3.43-.86,2.18-1.28,3.27c-.52,1.36-1,2.72-1.54,4.1h4c.2,0,.25-.1.32-.27.26-.7.54-1.39.81-2.09.06-.16.13-.29.36-.29h5c.12,0,.21,0,.26.16.26.74.56,1.46.8,2.2.08.25.18.3.4.29h4C29.8,88.33,29.8,88.28,29.79,88.25Zm-6.54-5.52h-3c.55-1.6,1.08-3.16,1.66-4.82.41,1.28.81,2.46,1.2,3.64.1.31.18.62.29.92s.08.26-.15.26Z"/><path id="Trazado_69" data-name="Trazado 69" class="cls-1" d="M66.21,85.89q-1.77-4.69-3.55-9.4c-.4-1.09-.87-2.16-1.2-3.27-.1-.19-.27-.14-.43-.14H57.31c-.11,0-.24,0-.33.08s-.13.4-.21.59c-.35.88-.68,1.76-1,2.64l-1.19,3.09c-.48,1.24-1,2.5-1.45,3.74s-.86,2.18-1.27,3.27c-.25.64-.48,1.29-.72,1.94,1.34,0,2.66,0,4,0,.24,0,.31-.11.38-.3.28-.71.57-1.42.84-2.13a.26.26,0,0,1,.3-.22h5.05c.11,0,.19,0,.25.14.27.78.59,1.53.85,2.3.06.17.11.2.25.2h4.14C66.84,87.57,66.53,86.73,66.21,85.89Zm-5.66-3.16h-3l1.65-4.82c.53,1.6,1,3.08,1.54,4.56.06.19,0,.26-.19.26Z"/><path id="Trazado_70" data-name="Trazado 70" class="cls-1" d="M98.41,86.25q-1.65-4.36-3.29-8.71c-.55-1.47-1.08-2.94-1.63-4.4a.24.24,0,0,0-.11-.06c-1.43,0-2.86,0-4.29,0-.22.56-.46,1.13-.68,1.7-.44,1.16-.86,2.31-1.3,3.46s-1,2.47-1.44,3.71l-1.2,3.16c-.42,1.1-.84,2.17-1.27,3.29h4c.17,0,.24-.06.3-.23.27-.71.58-1.41.84-2.12a.39.39,0,0,1,.44-.3c1.6,0,3.2,0,4.79,0a.48.48,0,0,1,.52.4c.17.55.4,1.09.57,1.65a.79.79,0,0,0,.92.62h0c.77,0,1.55,0,2.33,0h1.24C99,87.67,98.69,87,98.41,86.25ZM89.64,82.7c.54-1.57,1.08-3.13,1.65-4.8.54,1.65,1.06,3.22,1.59,4.8Z"/><path id="Trazado_71" data-name="Trazado 71" class="cls-1" d="M29.88,95c.33.92.65,1.84,1,2.75s.74,2,1.12,2.94c0,.1.1.27.17.27s.15-.17.19-.28c.5-1.23,1-2.47,1.48-3.7l.81-2a2.73,2.73,0,0,1,1,0c.58,0,1.16,0,1.75,0,.19,0,.35,0,.37.25,0,1,.27,1.91.39,2.87s.33,2.19.5,3.28c.22,1.46.45,2.91.67,4.36a3.7,3.7,0,0,0,.13.81c0,.07,0,.12-.1.12-1,0-2,.07-3,0-.21-1.77-.43-3.54-.65-5.31-.05-.38-.1-.77-.15-1.18-.18.1-.19.28-.25.41-.8,1.91-1.61,3.82-2.39,5.74a.54.54,0,0,1-.61.4c-.81,0-.81,0-1.11-.75-.77-1.94-1.54-3.87-2.39-5.81-.1.72-.22,1.43-.32,2.15-.19,1.39-.39,2.78-.58,4.17a.26.26,0,0,1-.3.23H25.07c-.14,0-.27,0-.22-.21.25-1.44.53-2.87.73-4.31s.53-2.92.72-4.39c.11-.92.33-1.83.51-2.74A16.57,16.57,0,0,1,29.88,95Z"/><path id="Trazado_72" data-name="Trazado 72" class="cls-1" d="M124,79a17,17,0,0,0,2.14,0c.74,0,1.49,0,2.23,0,.09.07.07.16.07.25,0,1.06.06,2.12-.05,3.18-1.46,0-2.93,0-4.39,0a13.05,13.05,0,0,0,0,2.5h0c.13.1.29.05.43.05h3.87c.3,0,.41.07.4.39,0,.91,0,1.82,0,2.72,0,.25-.07.33-.33.33-2.75,0-5.51,0-8.26,0a.33.33,0,0,1-.17,0V73.14a.71.71,0,0,1,.43,0h7.86c.46,0,.46,0,.46.48,0,.87,0,1.73,0,2.59,0,.3-.1.37-.38.37-1.28,0-2.57,0-3.86,0a.84.84,0,0,0-.47,0h0A12.23,12.23,0,0,0,124,79Z"/><path id="Trazado_73" data-name="Trazado 73" class="cls-1" d="M145.77,84.92a3.62,3.62,0,0,0,2.1-1,2.87,2.87,0,0,0,.69-.56c.14.11.08.24.08.34,0,1.32,0,2.64,0,4a.43.43,0,0,1-.36.51h0c-.72.23-1.44.42-2.17.58-.15.07-.32,0-.46.07h-1.12c-.17-.1-.36,0-.53-.07a7.87,7.87,0,0,1-6.95-6.34c-.05-.27,0-.55-.11-.81a11.64,11.64,0,0,1,0-1.67A7.87,7.87,0,0,1,144,72.84c.15-.07.31,0,.45-.07a9,9,0,0,1,3.9.69c.16.06.3.07.3.3v4.6a4.67,4.67,0,0,0-2.78-1.64,4,4,0,0,0-1.19,0,3.85,3.85,0,0,0-3.49,3.07,4,4,0,0,0-.07,1.25c.06.15,0,.31.07.45A3.68,3.68,0,0,0,144,84.82a1.84,1.84,0,0,0,.77.09A2.54,2.54,0,0,0,145.77,84.92Z"/><path id="Trazado_74" data-name="Trazado 74" class="cls-1" d="M223,88.81a7.89,7.89,0,0,1-3.95-1.53A7.92,7.92,0,0,1,215.94,82c-.06-.14,0-.31-.07-.45V80.09c.1-.14,0-.31.07-.45A7.56,7.56,0,0,1,218.27,75,7.87,7.87,0,0,1,222.36,73l.55-.11c.15-.06.31,0,.46-.06a8.81,8.81,0,0,1,3.93.69.55.55,0,0,0,.18,0c.15.07.13.2.13.34V78c0,.11,0,.25-.12.29a4.41,4.41,0,0,0-2.64-1.53,3.75,3.75,0,0,0-1.25,0,3.83,3.83,0,0,0-3.51,3.68,1.3,1.3,0,0,0,0,.73,3.78,3.78,0,0,0,3.68,3.78,2.43,2.43,0,0,0,.93,0,4.09,4.09,0,0,0,2.3-1.07c.17-.14.32-.3.48-.44s.13.09.13.18v4.47s0,.07-.07.1c-.85.19-1.67.5-2.53.64-.14.06-.3,0-.44.07h-1.12C223.32,88.78,223.15,88.86,223,88.81Z"/><path id="Trazado_75" data-name="Trazado 75" class="cls-1" d="M195,76.56c0,.74,0,1.49,0,2.23,0,.3.17.24.34.24,1.23,0,2.46,0,3.69,0,.4,0,.48.12.47.49,0,.84,0,1.67,0,2.5,0,.39-.12.45-.47.45-1.21,0-2.43,0-3.64,0-.3,0-.42,0-.4.37.05.73,0,1.46.05,2.19a.71.71,0,0,0,.43,0c1.26,0,2.52,0,3.78,0,.35,0,.49.06.48.45q0,1.28,0,2.55c0,.33-.07.44-.43.44q-3.94,0-7.87,0c-.33,0-.43-.08-.42-.41,0-2,0-4,0-6,0-2.84,0-5.68,0-8.53,0-.34.08-.44.43-.44q3.94,0,7.87,0c.33,0,.43.09.42.42,0,.88,0,1.75,0,2.63,0,.32-.1.4-.4.39q-1.94,0-3.87,0A.8.8,0,0,0,195,76.56Z"/><path id="Trazado_76" data-name="Trazado 76" class="cls-1" d="M9.19,88.87H8.36c-.18-.08-.37,0-.55-.06a8,8,0,0,1-4.15-1.62,7.68,7.68,0,0,1-2.58-3.54,6.28,6.28,0,0,1-.43-1.82c-.05-.15,0-.31-.06-.45v-1c.1-.17,0-.36.07-.54a7.59,7.59,0,0,1,1.6-4A7.86,7.86,0,0,1,7.1,73a8.47,8.47,0,0,1,4.9.48l.21,0c.16.09.13.24.13.38v4.07c0,.11.07.27-.12.32A5,5,0,0,0,10,76.81a4,4,0,0,0-5,2.63.83.83,0,0,0-.06.21,4.2,4.2,0,0,0,1.62,4.66,3.44,3.44,0,0,0,2,.61,2.31,2.31,0,0,0,1,0,4,4,0,0,0,1.85-.75,10.66,10.66,0,0,0,.88-.76c.19,0,.12.17.12.27v4.15c0,.13,0,.27-.14.34-.7.13-1.35.42-2,.55a2.1,2.1,0,0,0-.5.09C9.5,88.86,9.34,88.79,9.19,88.87Z"/><path id="Trazado_77" data-name="Trazado 77" class="cls-1" d="M178.67,106.6c-.61-.77-1.23-1.54-1.84-2.32s-1.32-1.7-2-2.56c-.49-.63-1-1.23-1.46-1.9a.55.55,0,0,0-.27-.2v6.95a21.11,21.11,0,0,1-3.08,0V95a.93.93,0,0,1,.59,0c.83,0,1.66,0,2.48,0l3.9,5,1.36,1.76c.06.08.1.21.21.19s.09-.19.09-.29V95a.92.92,0,0,1,.59,0,18.52,18.52,0,0,1,2.47,0v11.58a2.91,2.91,0,0,1-1,.06C180,106.61,179.35,106.6,178.67,106.6Z"/><path id="Trazado_78" data-name="Trazado 78" class="cls-1" d="M98.43,106.59l-1.33-1.67c-.58-.74-1.15-1.49-1.73-2.24l-2.2-2.83a.4.4,0,0,0-.28-.2v6.92c-.94.08-1.88,0-2.81,0-.17,0-.24-.07-.23-.23a2.43,2.43,0,0,0,0-.27V95.41c0-.57,0-.51.53-.5.83,0,1.67,0,2.5,0l3.92,5,1.38,1.75c0,.07.06.23.21.16s0-.16,0-.24c0-2.22,0-4.45,0-6.67.18-.13.4-.06.59-.06a22.76,22.76,0,0,1,2.48,0v11.62C100.48,106.64,99.45,106.59,98.43,106.59Z"/><path id="Trazado_79" data-name="Trazado 79" class="cls-1" d="M209.3,99.7a1.17,1.17,0,0,1-.07-.25,5.8,5.8,0,0,0-2.39-3.64,7.35,7.35,0,0,0-3.1-1.24c-.24-.07-.5,0-.72-.06h-.24c-.23.1-.48,0-.72.06a6.94,6.94,0,0,0-3.74,1.62,5.62,5.62,0,0,0-1.91,3.77,8.42,8.42,0,0,0,0,1.23,8.75,8.75,0,0,0,.29,1.51,5.67,5.67,0,0,0,2.1,3,7,7,0,0,0,8.93-.78,6.44,6.44,0,0,0,1.57-3.5c0-.15,0-.31.06-.47v-.81C209.28,100,209.36,99.84,209.3,99.7Zm-6.41,4.35a3.35,3.35,0,0,1-3.31-3.39v0a3.25,3.25,0,0,1,3.28-3.11,3.29,3.29,0,0,1,3.32,3.07,3.4,3.4,0,0,1-3.29,3.47Z"/><path id="Trazado_80" data-name="Trazado 80" class="cls-1" d="M57.82,96.66a5.9,5.9,0,0,0-4.09-1.73c-1.34-.06-2.67,0-4,0-.38,0-.45.12-.45.48,0,2.18,0,4.36,0,6.54v4.31c0,.19,0,.39.26.39,1.6,0,3.2,0,4.8,0l.79-.19a5.79,5.79,0,0,0,2.68-9.73Zm-1.48,4.68a2.94,2.94,0,0,1-3,2.66c-1,0-1,0-1-.92V100.7c0-1,0-1.9,0-2.86,0-.27.08-.34.35-.34a5.76,5.76,0,0,1,1.31.12A3.11,3.11,0,0,1,56.34,101.34Z"/><path id="Trazado_80-2" data-name="Trazado 80" class="cls-1" d="M8.54,96.66a5.9,5.9,0,0,0-4.09-1.73c-1.34-.06-2.67,0-4,0-.38,0-.45.12-.45.48,0,2.18,0,4.36,0,6.54v4.31c0,.19,0,.39.26.39,1.6,0,3.2,0,4.8,0l.79-.19A5.56,5.56,0,0,0,10,102.32,5.56,5.56,0,0,0,8.54,96.66Zm-1.48,4.68A2.94,2.94,0,0,1,4,104c-1,0-1,0-1-.92V100.7c0-1,0-1.9,0-2.86,0-.27.08-.34.35-.34a5.76,5.76,0,0,1,1.31.12A3.11,3.11,0,0,1,7.06,101.34Z"/><path id="Trazado_81" data-name="Trazado 81" class="cls-1" d="M224.41,102.59V95a19.79,19.79,0,0,1,3.08,0c0,2.28,0,4.57,0,6.86.07.17,0,.36.07.53a1.71,1.71,0,0,0,1.56,1.85h0a1.63,1.63,0,0,0,.76,0,1.77,1.77,0,0,0,1.56-1.68,2.06,2.06,0,0,0,.09-.85,1.3,1.3,0,0,0,0-.48c0-2,0-3.9,0-5.84,0-.33.06-.46.43-.45.77,0,1.55,0,2.32,0,.2,0,.34,0,.33.27,0,2.42,0,4.83,0,7.25a5.2,5.2,0,0,1-.73,2.6,4.53,4.53,0,0,1-3.14,1.81,7.1,7.1,0,0,1-2.3,0,4.37,4.37,0,0,1-3.5-2,3.91,3.91,0,0,1-.48-1.7C224.41,103,224.51,102.76,224.41,102.59Z"/><path id="Trazado_82" data-name="Trazado 82" class="cls-1" d="M252.69,106.47,248.34,95a28.63,28.63,0,0,0-3.34,0q-2.25,5.79-4.48,11.6s0,.06.06.06c1.06,0,2.12,0,3.18,0q.33-.82.63-1.65a.44.44,0,0,1,.49-.32c1.15,0,2.31,0,3.46,0a.47.47,0,0,1,.52.39,8.85,8.85,0,0,0,.64,1.61q.88,0,1.77,0a8,8,0,0,0,1.47,0A.35.35,0,0,1,252.69,106.47Zm-7.28-4.24c.21-.6.42-1.2.61-1.78s.4-1.18.63-1.89c.44,1.29.84,2.47,1.24,3.67Z"/><path id="Trazado_83" data-name="Trazado 83" class="cls-1" d="M129,106.28c-1-2.75-2.09-5.51-3.13-8.26-.38-1-.81-2-1.1-3-.09-.15-.25-.08-.36-.08-.74,0-1.47,0-2.2,0a2.26,2.26,0,0,0-.86,0c-.35.9-.71,1.79-1,2.67-.54,1.42-1.06,2.83-1.6,4.24s-1.18,3-1.76,4.53c-.08.3.17.2.3.21.9,0,1.81,0,2.72,0,.08,0,.18,0,.23-.07a15.05,15.05,0,0,1,.68-1.77c.05-.17.18-.16.31-.16,1.2,0,2.4,0,3.61,0,.19,0,.28.05.36.28.2.58.46,1.15.7,1.72,1,0,1.92,0,2.9,0,.12,0,.3.1.36-.13A.72.72,0,0,1,129,106.28Zm-7.22-4.06,1.2-3.58h.1c.39,1.18.78,2.36,1.19,3.58Z"/><path id="Trazado_84" data-name="Trazado 84" class="cls-1" d="M168.89,106c-.9-2.38-1.81-4.75-2.7-7.12-.49-1.3-.95-2.62-1.43-3.92a.27.27,0,0,0-.12-.06h-3.16a.18.18,0,0,0-.15.08c-.35.94-.71,1.9-1.07,2.84-.55,1.4-1.11,2.77-1.65,4.17s-1.13,3-1.69,4.48c0,.16.13.13.22.13.25,0,.5,0,.74,0a22,22,0,0,0,2.3,0c.23-.59.48-1.17.67-1.77.08-.2.2-.17.34-.17h3.64a.33.33,0,0,1,.37.27c.21.55.41,1.11.62,1.68,0,0,.06,0,.11,0h2.92c.1,0,.22,0,.24-.13S169,106.16,168.89,106Zm-7.1-3.77c.4-1.21.8-2.39,1.24-3.7.44,1.31.85,2.49,1.25,3.7Z"/><path id="Trazado_85" data-name="Trazado 85" class="cls-1" d="M117.7,98.38a3.32,3.32,0,0,0-2.23-3.12,6.57,6.57,0,0,0-1.92-.34c-1.45,0-2.91,0-4.37,0a.63.63,0,0,0-.38,0v11.62c.93.07,1.87,0,2.8,0,.24,0,.24-.14.24-.32,0-.52,0-1.05,0-1.57a13.68,13.68,0,0,1,0-1.92,19.07,19.07,0,0,1,2,0c.17-.08.37,0,.55-.05a4,4,0,0,0,2.17-.9,3.9,3.9,0,0,0,1.11-2.64A2.61,2.61,0,0,0,117.7,98.38Zm-4.2,1.83c-.46.06-.93.05-1.4.1-.22,0-.27-.1-.26-.3,0-.4,0-.79,0-1.19s0-.79,0-1.18c0-.15,0-.25.21-.25a7.92,7.92,0,0,1,1.54.09c.68.19,1,.63,1,1.47a1.14,1.14,0,0,1-1,1.25h0Z"/><path id="Trazado_86" data-name="Trazado 86" class="cls-1" d="M67.63,95v2.54a10.17,10.17,0,0,1-1.56.05,19.59,19.59,0,0,0-2,0c0,.54,0,1.08,0,1.62,0,.27.15.23.31.23.92,0,1.85,0,2.77,0,.28,0,.38.07.37.37,0,.64,0,1.28,0,1.93,0,.27-.08.35-.35.34-.91,0-1.82,0-2.72,0-.32,0-.4.1-.38.39s0,.85,0,1.28c0,.25.08.31.32.31h3c.27,0,.38,0,.37.35,0,.73,0,1.47,0,2.2a1.29,1.29,0,0,1-.48,0H61.42a1.3,1.3,0,0,1-.48,0V95a.45.45,0,0,1,.3,0h6.09A.45.45,0,0,1,67.63,95Z"/><path id="Trazado_87" data-name="Trazado 87" class="cls-1" d="M11.68,106.54V95c.08-.09.19-.06.28-.06H18.1a.4.4,0,0,1,.26,0v2.54a11,11,0,0,1-1.62.05,18.56,18.56,0,0,0-2,0c0,.52,0,1,0,1.54,0,.24.05.32.31.32.93,0,1.87,0,2.81,0,.24,0,.33,0,.32.31,0,.65,0,1.31,0,2,0,.31-.11.36-.38.35H15.09c-.26,0-.36,0-.35.33a9.69,9.69,0,0,1,0,1.32c0,.29.1.33.35.33,1,0,1.94,0,2.9,0,.28,0,.38,0,.38.35,0,.73,0,1.47,0,2.2a1.52,1.52,0,0,1-.52,0h-5.7C12,106.6,11.82,106.65,11.68,106.54Z"/><path id="Trazado_88" data-name="Trazado 88" class="cls-1" d="M43.88,104c1.16.06,2.33,0,3.5,0a21.36,21.36,0,0,1,0,2.4c0,.2-.14.19-.27.19H45.8c-1.56,0-3.11,0-4.66,0-.3,0-.4-.08-.4-.39q0-5.48,0-11c0-.27.06-.38.36-.38q3,0,6,0c.31,0,.36.12.35.39,0,.63,0,1.26,0,1.89,0,.29-.08.38-.37.37-1,0-1.9,0-2.85,0-.31,0-.42.09-.39.39a10.6,10.6,0,0,0,0,1.49l3.33,0a12.84,12.84,0,0,1,0,2.63c-1.11,0-2.22,0-3.32,0A7.63,7.63,0,0,0,43.88,104Z"/><path id="Trazado_89" data-name="Trazado 89" class="cls-1" d="M234.09,73.13q0,7.45,0,14.9c0,.32-.07.41-.4.41-1.19,0-2.38,0-3.57,0a.8.8,0,0,1,0-.43V73.58c0-.5,0-.5.49-.5h3.08A.71.71,0,0,1,234.09,73.13Z"/><path id="Trazado_90" data-name="Trazado 90" class="cls-1" d="M190.89,95v2.54a14.34,14.34,0,0,1-1.73.05,2.23,2.23,0,0,0-.73,0h0a.87.87,0,0,0-.05.48c0,2.7,0,5.39,0,8.09,0,.36-.1.47-.46.46-.75,0-1.5,0-2.24,0-.32,0-.39-.1-.39-.4,0-2.73,0-5.45,0-8.18,0-.49,0-.48-.5-.5a11.18,11.18,0,0,1-2-.06V95c.1-.1.22-.06.33-.06h7.46A.45.45,0,0,1,190.89,95Z"/><path id="Trazado_91" data-name="Trazado 91" class="cls-1" d="M77.13,106.57V95a17.49,17.49,0,0,1,3.07,0c0,2.92,0,5.83,0,8.75,0,.24.06.32.31.32,1.1,0,2.2,0,3.29,0a8,8,0,0,1,.06,1.83c0,.76,0,.76-.75.76H77.6A1.25,1.25,0,0,1,77.13,106.57Z"/><path id="Trazado_92" data-name="Trazado 92" class="cls-1" d="M72.56,104c1,.1,2.07,0,3.11,0,.38,0,.53.07.5.49,0,.69,0,1.38,0,2.07a1.09,1.09,0,0,1-.44,0c-2,0-3.9,0-5.85,0-.37,0-.45-.11-.45-.47,0-3.59,0-7.18,0-10.77,0-.47,0-.47.49-.47H72c.57,0,.53-.07.53.51v8.09A.88.88,0,0,0,72.56,104Z"/><path id="Trazado_93" data-name="Trazado 93" class="cls-1" d="M239.62,95v11.58a2.73,2.73,0,0,1-1,0,19.83,19.83,0,0,1-2,0V95A17.49,17.49,0,0,1,239.62,95Z"/><path id="Trazado_94" data-name="Trazado 94" class="cls-1" d="M192,106.54V95c.08-.09.19-.06.29-.06.82,0,1.64,0,2.46,0,.28,0,.4.07.37.37s0,.53,0,.79c0,3.37,0,6.73,0,10.1,0,.37-.11.47-.47.46-.76,0-1.52,0-2.28,0C192.2,106.6,192.06,106.64,192,106.54Z"/><path id="Trazado_95" data-name="Trazado 95" class="cls-1" d="M84.79,106.54V95a.92.92,0,0,1,.59,0,20.49,20.49,0,0,1,2.48,0v11.62A22.47,22.47,0,0,1,84.79,106.54Z"/><path id="Trazado_96" data-name="Trazado 96" class="cls-1" d="M258.7,72.73A3.7,3.7,0,0,0,255,76.42v0a3.69,3.69,0,0,0,3.6,3.78h.13a3.77,3.77,0,0,0,3.79-3.74,3.72,3.72,0,0,0-3.68-3.78A.17.17,0,0,0,258.7,72.73Zm0,6.89a3.15,3.15,0,0,1-3.11-3.15,3.14,3.14,0,0,1,6.27,0,3.18,3.18,0,0,1-3.16,3.13Zm1.73-4.18a1,1,0,0,0-1-1h0c-.64-.07-1.29,0-1.94,0-.21,0-.17.15-.17.27,0,1.25,0,2.5,0,3.74,0,.28.13.29.35.3s.32-.08.31-.33c0-.42,0-.85,0-1.27,0-.21.06-.28.27-.29a.61.61,0,0,1,.7.37c.17.35.43.67.6,1a.75.75,0,0,0,.95.48l.08,0-1.15-1.83c.83-.25,1.09-.58,1.05-1.33Zm-1.85.76h-.27c-.3,0-.4-.07-.38-.38,0-1,0-1,1-.9a1.1,1.1,0,0,1,.59.14.54.54,0,0,1,.23.57.5.5,0,0,1-.31.48,2.29,2.29,0,0,1-.82.08Z"/><path id="Trazado_97" data-name="Trazado 97" class="cls-1" d="M259.4,76.77c.82-.25,1.08-.58,1-1.33a1,1,0,0,0-1-1h0c-.64-.07-1.29,0-1.94,0-.21,0-.17.15-.17.28,0,1.24,0,2.49,0,3.73,0,.28.13.29.35.3s.32-.08.31-.33c0-.42,0-.85,0-1.27,0-.21.06-.28.27-.29a.61.61,0,0,1,.7.37c.17.35.43.67.6,1a.75.75,0,0,0,.95.48l.08,0Zm-.81-.57a1.11,1.11,0,0,0-.26,0c-.3,0-.4-.07-.39-.38,0-1,0-1,1-.9a1.08,1.08,0,0,1,.58.14.56.56,0,0,1,.24.57.51.51,0,0,1-.32.48,2.25,2.25,0,0,1-.82.08Z"/><path id="Trazado_98" data-name="Trazado 98" class="cls-1" d="M259.4,76.77c.82-.25,1.08-.58,1-1.33a1,1,0,0,0-1-1h0c-.64-.07-1.29,0-1.94,0-.21,0-.17.15-.17.28,0,1.24,0,2.49,0,3.73,0,.28.13.29.35.3s.32-.08.31-.33c0-.42,0-.85,0-1.27,0-.21.06-.28.27-.29a.61.61,0,0,1,.7.37c.17.35.43.67.6,1a.75.75,0,0,0,.95.48l.08,0Zm-.81-.57a1.11,1.11,0,0,0-.26,0c-.3,0-.4-.07-.39-.38,0-1,0-1,1-.9a1.08,1.08,0,0,1,.58.14.56.56,0,0,1,.24.57.51.51,0,0,1-.32.48,2.25,2.25,0,0,1-.82.08Z"/></g></g></svg>