<svg xmlns="http://www.w3.org/2000/svg" viewBox="0 0 84.88 108.29"><defs><style>.cls-1{fill:#afafaf;}.cls-2{fill:#6c6c6c;}.cls-3{fill:#081610;}.cls-4{fill:#234335;}</style></defs><title>Recurso 1</title><g id="Capa_2" data-name="Capa 2"><g id="Capa_1-2" data-name="Capa 1"><g id="Grupo_11" data-name="Grupo 11"><path id="Trazado_99" data-name="Trazado 99" class="cls-1" d="M55,7.79a4.2,4.2,0,0,1,1.58-.15H78.75a4.75,4.75,0,0,0,1.68-.18L84.86,0H51a1,1,0,0,0-1,.63C49,2.43,48,4.19,46.92,6c-1.27,2.16-2.55,4.32-3.89,6.58l-.76-1.29c-2-3.46-4-6.91-6-10.39A1.48,1.48,0,0,0,34.75,0Q18.58,0,2.4,0A1.71,1.71,0,0,0,1.31.18c.29.52.57,1,.85,1.56A1.45,1.45,0,0,0,2.5,2.92c.59,1,1.2,1.94,1.7,3A3,3,0,0,0,7.34,7.66c7.41-.06,14.82,0,22.23,0a4.33,4.33,0,0,1,1.48.13.71.71,0,0,1,.52.61c0,.44-.42.26-.67.3a4.56,4.56,0,0,1-.74,0h-24c-.6,0-1.3-.23-1.76.43,2.32.23,4.65.05,7,.1,1.7,0,1.7,0,2.4,1.7A1.53,1.53,0,0,0,14.11,12c.61,1,1.26,2.05,1.8,3.12a2.87,2.87,0,0,0,3,1.69c5.45-.07,10.9,0,16.35,0a2.25,2.25,0,0,1,2,1.08A9.49,9.49,0,0,1,39,24.55c-.06.78-.33.68-.81.46a5.4,5.4,0,0,1-1.67-3.55c-.06-.56-.25-.71-.79-.7-1.63,0-3.26,0-4.9,0-1.84,0-1.84,0-1.61,1.86-.28.4-.12.81,0,1.23A11.36,11.36,0,0,0,31,28.14c.64.95,1.31,1.84.23,2.91,0,0,0,.13,0,.2h0l-1.07,2c-.13.32-.28.63-.42.95l0,.1-.06.13A12.63,12.63,0,0,0,31,45.87c.62,1,1.16,1.85.24,2.91-.06.07,0,.21-.05.31-.4,1.13-1.3,2-1.65,3.14-.12,1-.68,2-.57,3.09.08.86.42,1.29,1.3,1.3q2.22,0,4.44,0a1.56,1.56,0,0,0,1-.3c.6.07.86-.17.85-.81a3.3,3.3,0,0,1,.64-1.95,4.09,4.09,0,0,1,.93-1.14c.27-.13.4-.51.85-.47,0,1.09,0,2.19,0,3.28s.24,1.32,1.32,1.35c1.45,0,2.91,0,4.36,0a1.5,1.5,0,0,0,1-.27c.84.11,1.2-.19,1.08-1.1a2.68,2.68,0,0,1,.1-1.56c.38-.6,0-1.33.33-2a4,4,0,0,1,1.77,2.68c.55,2.53.79,2.2,3.23,2.23h.64c1.09,0,2.23-.2,3,.87.29-.33-.45-1.12.44-1.13s.67-.41.63-.89a12.61,12.61,0,0,0-2.23-6.55,2.06,2.06,0,0,1,0-2.77,13.68,13.68,0,0,0-.26-15.38A1.28,1.28,0,0,1,54.33,29a15.79,15.79,0,0,0,2.57-7.33c.05-.75-.12-1-.9-1-1.52.05-3,0-4.57,0s-1.63,0-2,1.6a1.59,1.59,0,0,1-.15.29c-.58.42-.46,1.22-.9,1.72A2.73,2.73,0,0,1,46.77,26c-.14-2.8-.44-5.57,1.66-7.82,1-1.46,2.52-1.39,4.06-1.38,4.89.05,9.79,0,14.68,0a4.69,4.69,0,0,0,1.58-.15c1.3-2.23,2.63-4.44,3.9-6.68A1.33,1.33,0,0,1,74,9.19a38.85,38.85,0,0,0,5.5-.1c-.47-.62-1.16-.41-1.77-.42q-10.75,0-21.5,0a7.5,7.5,0,0,1-1.06,0c-.23,0-.56,0-.57-.31A.62.62,0,0,1,55,7.79ZM36.64,37.1a3.58,3.58,0,0,1,.91-1.52l.62-.39v7.67A6.19,6.19,0,0,1,36.64,37.1Zm10.22-.75h0a.51.51,0,0,1,0-.13,6.45,6.45,0,0,1,1.47,5.71c0,.13-.13.24.06.32a3.51,3.51,0,0,1-1.7,1.68C46.83,41.32,46.54,38.83,46.86,36.35Z"/><path id="Trazado_100" data-name="Trazado 100" class="cls-1" d="M25.85,68.75c0,4.16,0,8.31,0,12.46,0,.84-.13,1.16-1.06,1.12-1.9-.08-1.9,0-1.9-1.88,0-4.79,0-9.58,0-14.36,0-.83.24-1,1-1a32.13,32.13,0,0,0,3.4,0c.61,0,.83.16.95.8.82,4.2,1.7,8.38,2.71,12.57V76c0-3.3,0-6.6,0-9.89,0-.71.12-1,.9-1,2.13,0,2.13,0,2.13,2.08,0,4.71,0,9.43,0,14.15,0,.78-.16,1-1,1a32.13,32.13,0,0,0-3.4,0c-.62,0-.91-.1-1.05-.81-.79-4.14-1.65-8.26-2.5-12.39C26,69,26.06,68.83,25.85,68.75Z"/><path id="Trazado_101" data-name="Trazado 101" class="cls-1" d="M42.35,86.78H1.15c-.74,0-1.2-.06-1.09-1,.06-.49.16-.73.68-.67a4.68,4.68,0,0,0,.53,0l82.41,0c.4,0,1.1-.42,1.19.55s-.21,1.1-1.09,1.1Q63.07,86.76,42.35,86.78Z"/><path id="Trazado_102" data-name="Trazado 102" class="cls-1" d="M84.67,73.92v-4.5c0-.14,0-.28,0-.42a3.88,3.88,0,0,0-3.12-3.8,8.32,8.32,0,0,0-4.51,0,3.79,3.79,0,0,0-3,3.68c-.08,3.08-.11,6.17,0,9.25.11,2.56,1.13,3.77,3.27,4.22a10.66,10.66,0,0,0,4,0,3.64,3.64,0,0,0,3.11-3.18A32.14,32.14,0,0,0,84.67,73.92ZM81,78.07c-.06,1.33-.62,1.86-1.7,1.86s-1.63-.56-1.72-1.86c-.22-2.8-.07-5.6-.09-8.41A3.42,3.42,0,0,1,77.6,69a1.66,1.66,0,0,1,1.76-1.49A1.58,1.58,0,0,1,81,69a24.92,24.92,0,0,1,0,4.57c0,1.48.06,3,0,4.46Z"/><path id="Trazado_103" data-name="Trazado 103" class="cls-1" d="M48.1,81.32Q46.3,73.67,44.62,66c-.16-.71-.42-1-1.12-.89-1,.11-2.38-.43-3.07.22s-.58,1.9-.82,2.89a1,1,0,0,0,0,.1l-3,13.15c-.06.24-.24.53,0,.78a13.28,13.28,0,0,0,3.15,0,2,2,0,0,0,.18-.58c.15-.77.32-1.53.43-2.3.08-.5.29-.76.84-.68a7.69,7.69,0,0,0,1,0c2.06,0,2.06,0,2.41,2,.28,1.61.28,1.61,1.92,1.61a8.07,8.07,0,0,1,.85,0C48.19,82.44,48.29,82.13,48.1,81.32Zm-5.05-5.25c-2.06.09-2.06.1-1.7-1.92l.93-5.33h.16c.38,2.2.73,4.4,1.16,6.58C43.72,76,43.53,76.05,43.05,76.07Z"/><path id="Trazado_104" data-name="Trazado 104" class="cls-1" d="M64.6,73.65a33,33,0,0,0,.18,4.66c.19.92.56,1.62,1.63,1.61s1.21-.83,1.47-1.63c.19-.6-.25-1.56.34-1.73a11.29,11.29,0,0,1,3-.06c.32,0,.28.25.28.46.1,3.06-.63,5.68-4.91,5.56H65.49c-2.5-.13-3.92-1.29-4.23-3.77a40.4,40.4,0,0,1,0-10.07c.29-2.31,1.64-3.44,4-3.68a10.62,10.62,0,0,1,1.49-.07c3.21.12,4.83,1.93,4.67,5.15,0,.5-.15.71-.67.67s-.78,0-1.17,0c-1.56,0-1.54,0-1.77-1.55-.12-.78-.32-1.59-1.34-1.63s-1.53.62-1.71,1.54A34.69,34.69,0,0,0,64.6,73.65Z"/><path id="Trazado_105" data-name="Trazado 105" class="cls-1" d="M11.37,73.7c0-2.59,0-5.18,0-7.77,0-.65.17-.83.83-.82q3.51.06,7,0c.7,0,.9.2.88.9,0,1.74,0,1.74-1.72,1.74-1.09,0-2.56-.38-3.18.17s-.11,2.13-.24,3.24c-.11.93.26,1.15,1.12,1.08,1-.08,2.06,0,3.08,0,.61,0,.76.17.76.76,0,1.85,0,1.85-1.8,1.85-.85,0-1.7,0-2.55,0-.45,0-.62.1-.61.58,0,1.24,0,2.49,0,3.73,0,.58.25.61.7.6,1.24,0,2.48,0,3.72,0,.62,0,.75.19.75.78,0,1.83,0,1.83-1.8,1.83-2,0-4,0-6,0-.75,0-1-.11-1-1C11.41,78.81,11.37,76.26,11.37,73.7Z"/><path id="Trazado_106" data-name="Trazado 106" class="cls-1" d="M.4,73.69c0-2.55,0-5.11,0-7.66,0-.65.1-.94.85-.93,2.2.06,4.4.05,6.6,0,.68,0,.82.22.82.85,0,1.8,0,1.8-1.76,1.8-.78,0-1.57,0-2.34,0-.46,0-.62.14-.61.61,0,1.13,0,2.27,0,3.4,0,.6.25.7.76.68,1,0,2,0,3,0,.61,0,.76.18.76.77,0,1.8,0,1.78-1.76,1.81-.87,0-2-.38-2.56.16S4,76.84,4,77.72q0,2,0,3.93c0,.5-.13.7-.65.66a10.94,10.94,0,0,0-1.81,0c-.86.1-1.15-.16-1.13-1.07C.44,78.73.4,76.21.4,73.69Z"/><path id="Trazado_107" data-name="Trazado 107" class="cls-1" d="M50.77,73.64c0-2.55,0-5.11,0-7.66,0-.72.21-.87.89-.87,2.72,0,2.72,0,2.72,2.66,0,3.69,0,7.38,0,11.07,0,.67.13.94.86.89.95-.07,1.91,0,2.87,0,.6,0,.77.16.77.77,0,1.84,0,1.83-1.82,1.83s-3.55,0-5.32,0c-.73,0-1-.14-1-.91C50.8,78.82,50.77,76.23,50.77,73.64Z"/><path id="Trazado_108" data-name="Trazado 108" class="cls-2" d="M13.74,10.9a52.76,52.76,0,0,1,2.83,4.73,1.43,1.43,0,0,0,1.44.82c5.84,0,11.69,0,17.53,0a1.93,1.93,0,0,1,1.8.95,9.63,9.63,0,0,1,2,7.15,11.42,11.42,0,0,0,0,1.17,1.13,1.13,0,0,1-.08.24c-.56-.08-.8-.5-1-.93.56-2.68-1.34-4.48-2.36-6.59-.21-.45-.7-.24-1.06-.24q-8.86,0-17.73,0a1.45,1.45,0,0,1-1.5-.83c-1.18-2.12-2.45-4.19-3.78-6.45Z"/><path id="Trazado_109" data-name="Trazado 109" class="cls-2" d="M2.17,1.73C3.11,3.32,4.08,4.88,5,6.5a1.4,1.4,0,0,0,1.44.79c7.84,0,15.68,0,23.52,0a2,2,0,0,1,2.34,1.64c0,.06,0,.12,0,.18H5.64c-.42,0-.84,0-1.27,0L0,1.73Z"/><path id="Trazado_110" data-name="Trazado 110" class="cls-2" d="M79.48,9.1,59.48,9H53.83c.39-1.54.64-1.75,2.07-1.75H79.2c.41,0,.86-.14,1.23.17Z"/><path id="Trazado_111" data-name="Trazado 111" class="cls-2" d="M48.43,18.15c.44-1.35,1.29-1.79,2.77-1.76,5.44.11,10.89,0,16.33.05.41,0,.86-.14,1.22.2-.41,1.26-1.25,1.58-2.56,1.56C60.27,18.11,54.35,18.15,48.43,18.15Z"/><path id="Trazado_112" data-name="Trazado 112" class="cls-1" d="M78.24,94.61c0-1.52,0-3,0-4.57,0-.53.13-.73.7-.73s.64.24.63.7q0,3.15,0,6.28c0,.46,0,.68-.61.69-1.64,0-1.64.08-2-1.5A19.1,19.1,0,0,0,76,92c0,1.4,0,2.8,0,4.2,0,.7-.23.84-.85.8-.44,0-.53-.19-.53-.58,0-2.16,0-4.33,0-6.49,0-.48.2-.61.64-.59a6.25,6.25,0,0,0,1.06,0c.54,0,.74.17.84.69.27,1.53.59,3,.9,4.57Z"/><path id="Trazado_113" data-name="Trazado 113" class="cls-1" d="M34.07,96.07c0-.43,0-.85,0-1.28a1.4,1.4,0,0,0-.43-1.24c-.36-.26-.28-.34,0-.65a2.63,2.63,0,0,0,.22-2.64c-.31-.82-1.13-.88-1.88-.92s-1.28,0-1.92,0c-.48,0-.61.17-.6.62,0,1,0,2,0,3.08s0,2.2,0,3.3c0,.24-.15.55.31.65,1,.22,1.35,0,1.35-1,0-.43,0-.86,0-1.28s-.24-.79.4-.76c.44,0,.88.11.91.68a8.23,8.23,0,0,1,0,1.49c-.13,1,.45.87,1.09.9C34.44,97,34.08,96.47,34.07,96.07Zm-2.53-3.38c-.86,0-.08-.78-.52-1,.35-.37-.33-1.06.55-1.1.69,0,.91.39.92,1S32.27,92.73,31.54,92.69Z"/><path id="Trazado_114" data-name="Trazado 114" class="cls-1" d="M53.12,95.87a9.68,9.68,0,0,0,.27-5.12c-.2-1.23-1-1.56-2.64-1.46-1.17.08-1.79.58-1.87,1.76a33.87,33.87,0,0,0,0,4c.07,1.53.93,2.19,2.47,2,.6-.06,1.2-.09,1.8-.17.31,0,.78.27.85-.44S53.53,95.92,53.12,95.87Zm-1.25-2.66h0c0,.6,0,1.2,0,1.8,0,.42-.14.79-.63.85s-.72-.27-.76-.69a16.89,16.89,0,0,1,0-4,.7.7,0,0,1,.72-.7h.07c.48,0,.61.4.61.83C51.87,91.93,51.87,92.57,51.87,93.21Z"/><path id="Trazado_115" data-name="Trazado 115" class="cls-1" d="M71.64,92.49c0-.82,0-1.63,0-2.44s.26-.76.81-.72.91-.09.89.66c0,1.67,0,3.33,0,5a2.14,2.14,0,0,1-2.08,2.18l-.3,0c-1.49,0-2.31-.68-2.35-2.12-.06-1.7,0-3.4,0-5.1,0-.7.43-.58.85-.59s.75,0,.74.59c0,1.59,0,3.19,0,4.78,0,.58,0,1.19.83,1.17s.68-.65.69-1.15C71.66,94,71.64,93.23,71.64,92.49Z"/><path id="Trazado_116" data-name="Trazado 116" class="cls-1" d="M23.12,92.59c0,.82,0,1.64,0,2.45a2,2,0,0,1-1.95,2.11h-.23a2.13,2.13,0,0,1-2.48-1.73,1,1,0,0,1,0-.17c-.09-1.8,0-3.62,0-5.43,0-.77.58-.41.93-.46s.76,0,.75.56c0,1.6,0,3.2,0,4.79,0,.49-.21,1.15.66,1.17s.86-.56.86-1.16c0-1.56,0-3.12,0-4.68,0-.58.19-.72.73-.7s.87,0,.83.72C23.08,90.89,23.12,91.74,23.12,92.59Z"/><path id="Trazado_117" data-name="Trazado 117" class="cls-1" d="M59.68,92.6c0,.85,0,1.7,0,2.55-.05,1.29-.84,2-2.26,2s-2.3-.64-2.35-1.88c-.08-1.8,0-3.61,0-5.41,0-.67.43-.5.79-.52s.77-.07.76.55c0,1.63,0,3.26,0,4.89,0,.44-.06,1,.57,1.08.8.15,1-.32,1-1,0-1.59,0-3.19,0-4.78,0-.6.17-.8.78-.78s.85.08.81.75C59.64,90.9,59.68,91.76,59.68,92.6Z"/><path id="Trazado_118" data-name="Trazado 118" class="cls-1" d="M14.81,106.29v-5c0-.35-.17-.8.49-.83s.53.5.53.87q0,3,0,6c0,.3.31.89-.4.85s-1.25.33-1.5-.65a42.42,42.42,0,0,0-1.7-5.26c0,1.7,0,3.4,0,5.09,0,.38.21.87-.54.85s-.5-.54-.5-.88q0-3,0-6.06c0-.32-.26-.9.43-.84.52.05,1.22-.36,1.47.56.49,1.76,1,3.5,1.56,5.26Z"/><path id="Trazado_119" data-name="Trazado 119" class="cls-1" d="M43.74,89.83c-.15-.73-.68-.47-1.09-.49s-.9-.18-1.06.53c-.5,2.34-1.07,4.67-1.61,7,1,.23,1.77.23,1.82-1.08,0-.69.64-.38,1-.42s.75-.06.74.48c0,1.33.82,1.19,1.74,1C44.76,94.52,44.23,92.18,43.74,89.83Zm-1.18,4.36c-.25,0-.49,0-.41-.38.15-.76.26-1.53.38-2.3l.17,0c.16.81.35,1.61.45,2.43.07.48-.37.27-.59.29Z"/><path id="Trazado_120" data-name="Trazado 120" class="cls-1" d="M8.59,90c-.1-.49-.29-.82-.82-.68s-1.13-.41-1.32.44c-.52,2.37-1,4.73-1.58,7.1,1,.23,1.69.22,1.72-1,0-.64.54-.51,1-.51s.85-.11.85.5c0,1.19.73,1.22,1.7,1C9.58,94.56,9.07,92.3,8.59,90ZM8,93.89c0,.68-.65.1-1.06.43l.56-2.94A5.59,5.59,0,0,1,8,93.89Z"/><path id="Trazado_121" data-name="Trazado 121" class="cls-2" d="M46.85,53.65a12.2,12.2,0,0,1-.13-2.77,5.92,5.92,0,0,1,2.75,4.26c.15.92.47,1.23,1.4,1.17,1.17-.09,2.35.06,3.5-.05,1-.1,1.42.24,1.46,1.18.12.41.07.67-.46.67-2.08,0-4.15,0-6.23,0-.52,0-.56-.3-.6-.66A7.3,7.3,0,0,0,46.85,53.65Z"/><path id="Trazado_122" data-name="Trazado 122" class="cls-1" d="M55.18,107.29c-.17,0-.36,0-.48-.15.6-1.46.28-3,.32-4.5s-.6-2.21-2-2.26A2,2,0,0,0,50.63,102a2.45,2.45,0,0,0,0,.54c0,1.23-.05,2.47,0,3.71,0,.86.21,1.71,1.22,2h1.94c.46,0,.92,0,1.38,0s.52-.07.5-.47S55.58,107.24,55.18,107.29Zm-1.26-2.89h0c0,.67,0,1.34,0,2a1,1,0,0,1-.91,1,.59.59,0,0,1-.19,0,.91.91,0,0,1-1-.84.86.86,0,0,1,0-.16c0-1.34,0-2.69,0-4a1,1,0,0,1,.88-1.06,1.21,1.21,0,0,1,.19,0,1,1,0,0,1,1.07.88v.18c0,.66,0,1.34,0,2Z"/><path id="Trazado_123" data-name="Trazado 123" class="cls-1" d="M44.27,102.08c-.11-1.32-.92-1.8-2.44-1.71a1.8,1.8,0,0,0-1.91,1.68,2.62,2.62,0,0,0,0,.28c0,1.34,0,2.69,0,4a1.72,1.72,0,0,0,1.47,1.91h1.51a1.59,1.59,0,0,0,1.39-1.53A36.4,36.4,0,0,0,44.27,102.08Zm-1.07,2.16h0c0,.71,0,1.42,0,2.12a1,1,0,0,1-1,1h-.13a1,1,0,0,1-1-.87v-.1a20.16,20.16,0,0,1,0-4.11,1,1,0,0,1,1-1.06l.19,0c.7,0,.94.53,1,1.17s0,1.2,0,1.79Z"/><path id="Trazado_124" data-name="Trazado 124" class="cls-1" d="M37.63,90.54c-.75,0-1.35,0-2,0-.44,0-.72,0-.72-.6s.25-.63.71-.62c.74,0,1.48,0,2.23,0,1.43,0,1.79.61,1.08,1.94s-1.34,2.4-2,3.6l-.48.92c.81,0,1.5,0,2.18,0,.49,0,.57.22.58.65s-.15.54-.55.54c-1.1,0-2.2,0-3.3,0-.48,0-.59-.18-.58-.62a2.76,2.76,0,0,1,.35-1.41C36,93.55,36.75,92.12,37.63,90.54Z"/><path id="Trazado_125" data-name="Trazado 125" class="cls-1" d="M24.54,93.43c0-1.33,0-2.35,0-3.38,0-.54.12-.76.7-.73.82.05,1.63,0,2.45,0,.44,0,.64.12.63.59s-.1.69-.6.63q-.32,0-.63,0A1.11,1.11,0,0,0,26,91.67a1.14,1.14,0,0,0,.16.57c.28.44.78.14,1.18.21s.92-.24.94.59-.47.69-1,.7a1.18,1.18,0,0,0-1.17,1.79c.32.55,1,.22,1.47.25s.9,0,.82.71c0,.36-.12.52-.48.48h-.22l-3.06-.06A25.25,25.25,0,0,1,24.54,93.43Z"/><path id="Trazado_126" data-name="Trazado 126" class="cls-1" d="M61.17,93.13c0-1.07,0-2.13,0-3.19,0-.46.14-.63.6-.62.85,0,1.7,0,2.56,0,.46,0,.62.15.62.61s-.14.67-.61.61a3.09,3.09,0,0,0-.43,0c-1.2,0-1.55.41-1.19,1.56.25.78,1,.2,1.46.35.22.07.57-.12.65.18a1.3,1.3,0,0,1,0,.93c-.24.38-.73.2-1.09.16-.84-.1-1.05.21-1,1s.14,1.2,1,1a8,8,0,0,1,.85,0c.46,0,.52.21.51.58s0,.62-.47.6c-1.09,0-2.41.32-3.21-.17-.63-.4-.13-1.84-.19-2.82C61.15,93.7,61.17,93.41,61.17,93.13Z"/><path id="Trazado_127" data-name="Trazado 127" class="cls-1" d="M81,93.19c0-1,0-2.06,0-3.09,0-.58.12-.83.75-.78.82,0,1.64,0,2.45,0,.51,0,.58.23.58.65s-.11.61-.55.56h-.53c-1.12,0-1.51.54-1.16,1.6.2.62.74.18,1.09.32s.9-.33,1.06.32-.06,1-.87,1c-.55,0-1.33-.4-1.33.82,0,1.06.3,1.38,1.29,1.22a1.87,1.87,0,0,1,.94.06c.32.14.12.5.15.77s-.27.32-.5.34c-3.36.31-3.36.31-3.36-3Z"/><path id="Trazado_128" data-name="Trazado 128" class="cls-2" d="M37.77,52.44c.3-.34.59-.7.9-1a.63.63,0,0,1,.63-.29c0,1.41,0,2.84,0,4.27,0,.68.17.92.88.91,1.83,0,3.67,0,5.5,0,0,1.79,0,1.79-1.84,1.79-1.59,0-3.18,0-4.77,0-.72,0-.86-.22-.87-.9a22.78,22.78,0,0,0-.12-4.52C37.83,52.78,37.73,52.69,37.77,52.44Z"/><path id="Trazado_129" data-name="Trazado 129" class="cls-1" d="M64.2,108.29H62.9a1.81,1.81,0,0,1-1.52-2c0-1.7,0-3.4,0-5.1,0-.42,0-.74.59-.73s.51.43.51.79c0,1.52,0,3,0,4.57,0,.76,0,1.57,1.12,1.57s1-.81,1-1.52c0-1.52,0-3,0-4.57,0-.42-.1-.85.6-.84s.55.4.55.79c0,1.63,0,3.26,0,4.88C65.78,107.23,65.42,108.08,64.2,108.29Z"/><path id="Trazado_130" data-name="Trazado 130" class="cls-2" d="M29.71,34.35a13.21,13.21,0,0,0,1.87,12c.65.92.71,1.52,0,2.28a3.86,3.86,0,0,0-.38.5,13.86,13.86,0,0,1-1.62-14.94C29.7,34.12,29.78,34.16,29.71,34.35Z"/><path id="Trazado_131" data-name="Trazado 131" class="cls-1" d="M82.66,101.1c-.12-.54-.39-.64-.89-.64s-.8,0-.92.6c-.48,2.21-1,4.42-1.49,6.63,0,.19-.26.54.18.54s.75.26.85-.32a4.29,4.29,0,0,0,.14-.62c0-1,.68-.72,1.24-.79s1.12.12,1.12.84c0,.93.49,1,1.35.83C83.71,105.79,83.16,103.45,82.66,101.1Zm-.34,4.38a2.83,2.83,0,0,1-1.16,0c-.38-.07-.17-.41-.13-.62.18-1,.41-1.92.61-2.88l.17,0c.19.93.38,1.87.56,2.81,0,.21.3.53-.05.62Z"/><path id="Trazado_132" data-name="Trazado 132" class="cls-1" d="M3.54,101.06c-.12-.53-.36-.6-.8-.59s-.82-.07-1,.55c-.5,2.38-1.06,4.75-1.6,7.11,1,.42,1.2-.13,1.24-.81s.48-.86,1.13-.82,1.23-.12,1.23.81.48,1.15,1.36.84C4.61,105.79,4,103.43,3.54,101.06Zm-1.7,4.37c.23-1.11.45-2.19.67-3.28h.24c.22,1.09.45,2.17.68,3.27a3,3,0,0,1-1.59,0Z"/><path id="Trazado_133" data-name="Trazado 133" class="cls-1" d="M13.6,93.2c0-1,0-2.06,0-3.08,0-.57.12-.85.76-.8a22.83,22.83,0,0,0,2.34,0c.44,0,.63.13.62.6s-.13.67-.6.62a1.48,1.48,0,0,0-.42,0c-.36.09-.9-.25-1,.2a2.79,2.79,0,0,0,0,1.57c.14.45.69.16,1.05.19s.9-.08.88.67-.5.6-.87.54c-1-.16-1.24.26-1.12,1.15a11.42,11.42,0,0,1,0,1.17c0,.57.06,1-.78,1s-.87-.3-.84-.93C13.63,95.11,13.6,94.16,13.6,93.2Z"/><path id="Trazado_134" data-name="Trazado 134" class="cls-2" d="M29.49,52.22c.31,1-.3,1.87-.3,2.85s.2,1.28,1.2,1.24c1.75-.08,3.51,0,5.27,0-.36,1.78-.36,1.78-2.14,1.78-1.55,0-3.11,0-4.66,0-.57,0-.73-.18-.71-.73A11.35,11.35,0,0,1,29.49,52.22Z"/><path id="Trazado_135" data-name="Trazado 135" class="cls-1" d="M.51,93c0-1,0-2.06,0-3.08,0-.67.34-.64.79-.62s.92-.13.9.64c0,1.59,0,3.19,0,4.78,0,.8.15,1.18,1,1,.28,0,.74-.17.85.19s.32,1-.55,1c-3,.14-3,.17-3-2.78Z"/><path id="Trazado_136" data-name="Trazado 136" class="cls-2" d="M29.21,22.62a12.78,12.78,0,0,0,2.47,6.14c.56.74.72,1.28-.05,1.91a4.26,4.26,0,0,0-.48.57A14,14,0,0,1,28,23.36C27.91,22.22,28.76,22.77,29.21,22.62Z"/><path id="Trazado_137" data-name="Trazado 137" class="cls-1" d="M23.61,104.83c0-.6,0-1.2,0-1.8.08-1,.1-2-1.38-1.63-.31.07-.43-.12-.43-.43s.1-.51.48-.5c1.23,0,2.47,0,3.71,0,.33,0,.52.08.51.47s-.16.53-.5.46c-1.28-.27-1.3.48-1.26,1.43.06,1.59,0,3.18,0,4.77,0,.38,0,.67-.53.68s-.65-.22-.63-.7C23.63,106.66,23.61,105.74,23.61,104.83Z"/><path id="Trazado_138" data-name="Trazado 138" class="cls-1" d="M72.07,104.38V101.2c0-.4,0-.76.57-.74s.54.3.54.68c0,2.15,0,4.31,0,6.46,0,.38,0,.66-.53.67s-.59-.28-.58-.71C72.08,106.5,72.07,105.44,72.07,104.38Z"/><path id="Trazado_139" data-name="Trazado 139" class="cls-1" d="M33.56,104.53c0,1,0,2,0,3.07,0,.37,0,.66-.52.68s-.6-.28-.59-.71c0-2.12,0-4.24,0-6.36,0-.4-.06-.75.56-.75s.54.41.54.78C33.56,102.34,33.56,103.43,33.56,104.53Z"/><path id="Trazado_140" data-name="Trazado 140" class="cls-2" d="M49.28,22.64c-.16.64-.25,1.33-.9,1.72a11.47,11.47,0,0,0,.14-1.16C48.54,22.66,48.82,22.55,49.28,22.64Z"/><path id="Trazado_141" data-name="Trazado 141" class="cls-3" d="M37.77,52.45l.29.25-.9.85A1.65,1.65,0,0,1,37.77,52.45Z"/><path id="Trazado_142" data-name="Trazado 142" class="cls-4" d="M29.71,34.35l-.18-.2a1.93,1.93,0,0,1,.56-.95A1.89,1.89,0,0,1,29.71,34.35Z"/><path id="Trazado_143" data-name="Trazado 143" class="cls-2" d="M39.4,33.18V43.9a2.53,2.53,0,0,1-1.22-1V35.19l-.63.39C37.62,34.42,38.53,34,39.4,33.18Z"/><path id="Trazado_144" data-name="Trazado 144" class="cls-2" d="M48.41,42.25c-.19-.08-.08-.2-.06-.33a6.45,6.45,0,0,0-1.47-5.71,9.7,9.7,0,0,1-.15-2.74C49.67,34.82,50.59,39.75,48.41,42.25Z"/></g></g></g></svg>