<svg xmlns="http://www.w3.org/2000/svg" viewBox="0 0 380.8 46.55"><defs><style>.cls-1{fill:#afafaf;}</style></defs><title>Recurso 3</title><g id="Capa_2" data-name="Capa 2"><g id="Capa_1-2" data-name="Capa 1"><g id="Grupo_13" data-name="Grupo 13"><path id="Trazado_1" data-name="Trazado 1" class="cls-1" d="M25.55,42.73a79.72,79.72,0,0,1-14.64.89A64.52,64.52,0,0,1,0,42.3l1-.86a78.86,78.86,0,0,1,11.85-8.32,18.93,18.93,0,0,1,5-2c.65-.14.54-.56.54-1,0-7.85,0-15.7,0-23.55a1.74,1.74,0,0,1,.89-1.67C21.67,3.33,24.05,1.69,26.55,0V24.45a2,2,0,0,0,1-1.73c0-7.19,0-14.37,0-21.56V0c1.09.7,2.06,1.31,3,1.93.34.22.2.58.2.88,0,5.71,0,11.42,0,17.22a1.79,1.79,0,0,0,1.09-1.67c0-4.91,0-9.8,0-14.69,0-.25-.14-.58.11-.72s.46.16.66.3c.82.53,1.94.92,2.36,1.68s.11,1.87.11,2.82c0,2.43,0,4.87,0,7.3,0,.2-.33.91.45.47.06,0,.28.17.41.28L52.33,30.55a1.59,1.59,0,0,1,.13.22c-1.32.06-2.47.2-3.63-.77-4.16-3.47-8.42-6.82-12.64-10.21-.3-.24-.52-.55-1-.16C30.5,23.37,25.8,27.08,21,30.87l3.45,1.25A49.92,49.92,0,0,1,29.21,34a10.37,10.37,0,0,0,7.68.51c1.51-.4,2.93-1.08,4.48-1.35.2,0,.4-.09.6-.11,1.61-.15,2.53.24,2.93,1.27a3.09,3.09,0,0,1-1.07,3.64c-.16.12-.34.21-.51.32a1.49,1.49,0,0,1-.94.56,120.22,120.22,0,0,1-15.63,3.9C26.34,42.79,25.94,42.69,25.55,42.73Z"/><path id="Trazado_2" data-name="Trazado 2" class="cls-1" d="M187.54,14.85a.66.66,0,0,1,0-.92l0,0a7.23,7.23,0,0,0,1.59-4.05A7.34,7.34,0,0,0,182.33,2a6.43,6.43,0,0,0-.76,0c-4.29,0-8.57,0-12.86,0-2,0-2.84.8-2.84,2.84,0,3.18,0,6.37,0,9.55s0,6.49,0,9.73a2.37,2.37,0,0,0,2.07,2.63,2.72,2.72,0,0,0,.57,0c4.35,0,8.69,0,13,0a7.1,7.1,0,0,0,6.75-4.08A7,7,0,0,0,187.54,14.85Zm-11.22,1.93c1.88,0,3.76,0,5.64.08a2.46,2.46,0,0,1,2.34,2.43,2.51,2.51,0,0,1-2.13,2.65,4.11,4.11,0,0,1-.86.07c-3.27,0-6.55,0-9.82,0-.71,0-.86-.22-.84-.88,0-2.25,0-4.51,0-6.77s0-4.63,0-7c0-.52.12-.69.66-.68,3.45,0,6.9,0,10.34,0a2.57,2.57,0,0,1,2.65,2.51v.11A2.59,2.59,0,0,1,181.73,12h-5.41a2.39,2.39,0,0,0-2.56,2.2.76.76,0,0,0,0,.15,2.42,2.42,0,0,0,2.37,2.46Z"/><path id="Trazado_3" data-name="Trazado 3" class="cls-1" d="M380.07,22.73c-1.43-1.48-2.9-2.92-4.43-4.45l.59-.34a8.41,8.41,0,0,0,4.3-9.52,8.62,8.62,0,0,0-8.33-6.49c-4.26,0-8.52,0-12.77,0a2.45,2.45,0,0,0-2.72,2.16,2.18,2.18,0,0,0,0,.51q0,9.74,0,19.47a2.46,2.46,0,0,0,2.23,2.67h.21c1.41,0,2.31-1,2.33-2.67,0-1.45,0-2.9,0-4.34,0-.68.2-.82.83-.8,2.17,0,4.35,0,6.52,0a1.51,1.51,0,0,1,1.21.5c2.12,2.14,4.25,4.26,6.38,6.39a3,3,0,0,0,1.12.8,2.42,2.42,0,0,0,2.9-1A2.31,2.31,0,0,0,380.07,22.73Zm-7.49-8.62c-1.76.08-3.53,0-5.3,0v0c-1.71,0-3.42,0-5.12,0-.53,0-.7-.15-.7-.69,0-2,0-4.05,0-6.08,0-.48.11-.65.62-.65,3.45,0,6.9,0,10.35,0A3.71,3.71,0,0,1,376,10.33a3.65,3.65,0,0,1-3.42,3.78Z"/><path id="Trazado_4" data-name="Trazado 4" class="cls-1" d="M237.52,18.28l.53-.27a8.52,8.52,0,0,0,4.55-9,8.28,8.28,0,0,0-7.41-7c-4.79-.38-9.6-.15-14.41-.09a2.27,2.27,0,0,0-2.13,2.39v0q0,9.94,0,19.9a2.37,2.37,0,0,0,2.3,2.45H221a2.29,2.29,0,0,0,2.34-2.26,1.47,1.47,0,0,0,0-.21c0-1.47,0-3,0-4.43,0-.7.13-.94.88-.92,2.14.05,4.29,0,6.43,0a1.7,1.7,0,0,1,1.35.59c2.1,2.12,4.22,4.22,6.33,6.33a2.85,2.85,0,0,0,1.11.8,2.42,2.42,0,0,0,2.84-.93,2.35,2.35,0,0,0-.34-3C240.54,21.23,239.06,19.8,237.52,18.28Zm-3.07-4.17c-3.5.07-7,0-10.5,0-.39,0-.57-.09-.57-.53q0-3.16,0-6.33c0-.52.25-.54.64-.54h5.29c1.65,0,3.3,0,4.95,0a3.79,3.79,0,0,1,3.7,3.63A3.69,3.69,0,0,1,234.45,14.11Z"/><path id="Trazado_5" data-name="Trazado 5" class="cls-1" d="M321.43,12.91c-.54-6-6-11-12.48-11-3.36,0-6.71,0-10.07,0A2.52,2.52,0,0,0,296,4.07a2.58,2.58,0,0,0,0,.68c0,3.21,0,6.43,0,9.64s0,6.48,0,9.73a2.42,2.42,0,0,0,2.2,2.63,1.77,1.77,0,0,0,.46,0q5.25,0,10.5,0a13.67,13.67,0,0,0,1.56-.13A12.41,12.41,0,0,0,321.43,12.91Zm-11.95,9c-2.66.06-5.33,0-8,0-.5,0-.63-.14-.63-.63,0-2.35,0-4.7,0-7s0-4.52,0-6.78c0-.52.07-.76.69-.75,2.6,0,5.21,0,7.82,0a7.58,7.58,0,0,1,.11,15.14Z"/><path id="Trazado_6" data-name="Trazado 6" class="cls-1" d="M205.46,12h6.69a2.41,2.41,0,0,1,2.62,2.2,1.21,1.21,0,0,1,0,.19,2.45,2.45,0,0,1-2.47,2.42h-.16c-4.52,0-9,0-13.55,0-.71,0-1,.16-.92.9.06.57,0,1.16,0,1.73a2.46,2.46,0,0,0,2.42,2.52h12.12a2.45,2.45,0,0,1,2.68,2.2v.06a2.35,2.35,0,0,1-2.15,2.54h-.14c-4.31,0-8.63.1-12.94,0a7.21,7.21,0,0,1-6.76-6.93q-.12-5.43,0-10.86a7.35,7.35,0,0,1,7.19-7c4.08-.07,8.17,0,12.25,0a2.4,2.4,0,0,1,2.55,2.28,1.27,1.27,0,0,1,0,.2,2.41,2.41,0,0,1-2.48,2.34H200.61a2.55,2.55,0,0,0-2.91,2.86c0,.75-.32,1.7.12,2.19s1.42.15,2.16.16C201.8,12,203.63,12,205.46,12Z"/><path id="Trazado_7" data-name="Trazado 7" class="cls-1" d="M84.07,12h6.78a2.43,2.43,0,0,1,2.6,2.23v.11a2.43,2.43,0,0,1-2.38,2.47h-.19c-4.23,0-8.46,0-12.69,0-1.83,0-1.83,0-1.83,1.79,0,.26,0,.52,0,.78a2.5,2.5,0,0,0,2.41,2.57H90.86a2.53,2.53,0,0,1,2.61,1.62,2.37,2.37,0,0,1-1.42,3.05,2.57,2.57,0,0,1-.78.15c-4.28,0-8.57.08-12.86,0a7.25,7.25,0,0,1-6.81-6.88q-.12-5.47,0-10.95a7.36,7.36,0,0,1,7.23-7c4.08-.06,8.16,0,12.25,0a2.41,2.41,0,0,1,2.52,2.3v.13a2.39,2.39,0,0,1-2.4,2.39H79.33c-2,0-3,1-3,3,0,.72-.32,1.64.13,2.09s1.38.13,2.1.14C80.42,12,82.25,12,84.07,12Z"/><path id="Trazado_8" data-name="Trazado 8" class="cls-1" d="M338.52,2a12.44,12.44,0,0,0-12.67,12.18v.18a12.35,12.35,0,0,0,12.22,12.49h.21a12.27,12.27,0,0,0,12.48-12v-.11A12.38,12.38,0,0,0,338.7,2Zm-.28,20.05a7.6,7.6,0,0,1-7.6-7.6v0a7.66,7.66,0,1,1,15.31.05v.07a7.58,7.58,0,0,1-7.63,7.52h-.08Z"/><path id="Trazado_9" data-name="Trazado 9" class="cls-1" d="M292.46,23.61Q288.61,14,284.72,4.4c-.7-1.74-1.1-2-3-2s-2.34.26-3.05,2l-5.11,12.7c-.89,2.2-1.79,4.39-2.66,6.6a2.37,2.37,0,0,0,1.7,3.41,2.21,2.21,0,0,0,2.55-1.46c.73-1.76,1.44-3.53,2.11-5.31a1.06,1.06,0,0,1,1.18-.84c2.17.06,4.35.05,6.52,0a1,1,0,0,1,1.08.73c.69,1.8,1.43,3.6,2.17,5.38a2.26,2.26,0,0,0,2.53,1.51C292.45,26.82,293.16,25.35,292.46,23.61Zm-8.78-8.11h-4.4l2.43-6.32c.4,1.06.76,2,1.1,2.89S283.53,14,283.9,15c.09.25.26.52-.22.52Z"/><path id="Trazado_10" data-name="Trazado 10" class="cls-1" d="M25.54,42.73c1.94-.4,3.88-.78,5.8-1.19a123.07,123.07,0,0,0,12-3.28c.65.5,1.34.17,2,0A40.51,40.51,0,0,0,53.56,35c2.3-1.09,4.56-2.26,6.84-3.4a6.58,6.58,0,0,1,3.16-.82,3,3,0,0,1,.6.05c.47.14,1.11.19,1.25.65s-.5.63-.81.9A167.51,167.51,0,0,1,50.68,43c-5,3.51-10.31,4.23-16.1,3A42.76,42.76,0,0,1,25.54,42.73Z"/><path id="Trazado_11" data-name="Trazado 11" class="cls-1" d="M259.44,2h9.81a2.38,2.38,0,0,1,2.62,2.12v.08a2.34,2.34,0,0,1-2.11,2.56h-.31c-2.23,0-4.46,0-6.68,0-.81,0-.94.24-.94,1,0,5.47,0,11,0,16.42a2.35,2.35,0,0,1-1.64,2.47,2.4,2.4,0,0,1-2.7-.87,2.55,2.55,0,0,1-.44-1.72c0-5.44,0-10.88,0-16.33,0-.79-.21-1-1-.94-2.14,0-4.28,0-6.43,0a2.36,2.36,0,0,1-2.62-2.08,2.45,2.45,0,0,1,0-.27A2.37,2.37,0,0,1,249.35,2a1.45,1.45,0,0,1,.36,0Z"/><path id="Trazado_12" data-name="Trazado 12" class="cls-1" d="M97.52,12.05V4.58a2.4,2.4,0,0,1,2.14-2.64h.23a2.45,2.45,0,0,1,2.39,2.5c0,.05,0,.1,0,.15q0,7.13,0,14.25a3.35,3.35,0,0,0,.62,2.21,2.6,2.6,0,0,0,2.25.89h11.21A2.42,2.42,0,0,1,119,24.09a2.46,2.46,0,0,1-.1,1,2.32,2.32,0,0,1-2.19,1.68c-4.14,0-8.29.1-12.43,0a7.16,7.16,0,0,1-6.76-7.18C97.49,17,97.52,14.55,97.52,12.05Z"/><path id="Trazado_13" data-name="Trazado 13" class="cls-1" d="M133.15,12.07V4.6A2.39,2.39,0,0,1,135.27,2l.23,0a2.45,2.45,0,0,1,2.4,2.49s0,.1,0,.15c0,4.72,0,9.44,0,14.17,0,2.32.88,3.19,3.2,3.2,3.65,0,7.3,0,10.95,0a2.41,2.41,0,0,1,2.59,2.22,2.29,2.29,0,0,1-.1.9,2.32,2.32,0,0,1-2.18,1.69c-4.14,0-8.29.1-12.43,0a7.17,7.17,0,0,1-6.77-7.08c0-2.52,0-5,0-7.56Z"/><path id="Trazado_14" data-name="Trazado 14" class="cls-1" d="M157.15,14.32c0-3.3,0-6.6,0-9.9a2.35,2.35,0,0,1,1.63-2.32,2.42,2.42,0,0,1,2.74,1,2.5,2.5,0,0,1,.38,1.49q0,9.81,0,19.62a2.36,2.36,0,0,1-2.17,2.54h-.19a2.35,2.35,0,0,1-2.39-2.31c0-.08,0-.15,0-.22C157.13,20.92,157.15,17.62,157.15,14.32Z"/><path id="Trazado_15" data-name="Trazado 15" class="cls-1" d="M308.62,37.4c.35-.27.58-.49.84-.67a2.11,2.11,0,0,1,3,.39l0,.06c.24.33.35.36.61.07a3.27,3.27,0,0,1,.67-.56,2.05,2.05,0,0,1,2.86.4,2.09,2.09,0,0,1,.39,1,35.85,35.85,0,0,1,.09,4.86c0,.46-.36.35-.62.37s-.54,0-.52-.4c0-.18,0-.35,0-.52,0-1.1,0-2.2,0-3.3s-.51-1.75-1.3-1.72a2.12,2.12,0,0,0-1.72,1.86c0,1.16,0,2.31,0,3.47,0,.44-.11.63-.58.63s-.6-.17-.59-.62c0-1.07,0-2.14,0-3.21a4.42,4.42,0,0,0-.13-1.2,1.17,1.17,0,0,0-1.85-.7,1.92,1.92,0,0,0-1.08,1.9,29,29,0,0,1,0,2.95c0,.4.19.89-.56.89s-.62-.41-.62-.86c0-1.7,0-3.41,0-5.12,0-.35-.21-.83.48-.89S308.5,37,308.62,37.4Z"/><path id="Trazado_16" data-name="Trazado 16" class="cls-1" d="M131.83,37.39a11.56,11.56,0,0,1,1.06-.78,2,2,0,0,1,2.72.49c.33.48.5.39.8,0a2.31,2.31,0,0,1,.54-.44,2,2,0,0,1,2.86.38,2.13,2.13,0,0,1,.4,1,35.67,35.67,0,0,1,.1,4.85c0,.39-.26.39-.53.39s-.61.07-.62-.38V42.4c0-1.1,0-2.2,0-3.3s-.5-1.75-1.28-1.74a2.12,2.12,0,0,0-1.74,1.93V42.5c0,.39.13.81-.54.82s-.6-.44-.6-.86c0-1,0-2,0-3a4.87,4.87,0,0,0-.15-1.2,1.15,1.15,0,0,0-1.4-.83l-.19.07a2,2,0,0,0-1.31,1.91c0,1.13,0,2.26,0,3.39,0,.43-.16.55-.56.55s-.65-.07-.64-.57c0-1.79,0-3.59,0-5.38,0-.35-.24-.84.46-.91S131.74,36.92,131.83,37.39Z"/><path id="Trazado_17" data-name="Trazado 17" class="cls-1" d="M94,37.37c.35-.27.63-.52,1-.72a2.06,2.06,0,0,1,2.84.51c.3.41.43.33.69,0a2.26,2.26,0,0,1,.53-.44,2,2,0,0,1,3.34,1.38c.17,1.57.07,3.17.09,4.77,0,.46-.33.37-.61.39s-.55-.06-.54-.47c0-.64,0-1.27,0-1.91s0-1.1,0-1.65c0-1.28-.46-1.92-1.28-1.91a2.1,2.1,0,0,0-1.74,2c0,1.1,0,2.2,0,3.3,0,.4-.06.63-.55.64s-.63-.22-.62-.67c0-1.07,0-2.15,0-3.22a4.07,4.07,0,0,0-.15-1.2,1.15,1.15,0,0,0-1.4-.83,1.27,1.27,0,0,0-.18.06A2,2,0,0,0,94,39.36c0,1.13,0,2.26,0,3.39,0,.42-.15.56-.55.55s-.65,0-.65-.56c0-1.79,0-3.59,0-5.38,0-.39-.2-.9.54-.92S93.8,37,94,37.37Z"/><path id="Trazado_18" data-name="Trazado 18" class="cls-1" d="M335.65,38a2.43,2.43,0,0,0-3-1.64,2.2,2.2,0,0,0-.69.33c-.24.14-.46.32-.8.57,0-1.21,0-2.28,0-3.35,0-.42-.09-.64-.56-.63s-.64.09-.64.58c0,3,0,5.9,0,8.84,0,.34.06.56.46.56s.65,0,.6-.5c0-.11-.09-.3.13-.32a2.63,2.63,0,0,0,3.71.32,2.58,2.58,0,0,0,.91-1.6A5.85,5.85,0,0,0,335.65,38Zm-1.22,3.32a1.48,1.48,0,0,1-1.69,1,2.2,2.2,0,0,1-1.61-1.69v-1a1.82,1.82,0,0,1,1.05-2.09,1.44,1.44,0,0,1,2,.28,1.35,1.35,0,0,1,.22.45,4.1,4.1,0,0,1,0,3Z"/><path id="Trazado_19" data-name="Trazado 19" class="cls-1" d="M111.75,38a2.43,2.43,0,0,0-3-1.6,2.37,2.37,0,0,0-.62.3c-.31.19-.59.42-1,.7,0-.48.15-1-.57-.95s-.48.54-.48.89c0,2.63,0,5.26,0,7.89,0,.48.14.66.64.66s.56-.24.56-.65c0-.87,0-1.73,0-2.78l.38.31a2.52,2.52,0,0,0,4.14-1.28A5.48,5.48,0,0,0,111.75,38Zm-1.21,3.36a1.52,1.52,0,0,1-1.72,1,2.21,2.21,0,0,1-1.57-1.73v-.93a1.89,1.89,0,0,1,1-2.12,1.45,1.45,0,0,1,2,.26,1.47,1.47,0,0,1,.23.45A4.12,4.12,0,0,1,110.54,41.36Z"/><path id="Trazado_20" data-name="Trazado 20" class="cls-1" d="M158.67,39.91c0,.87,0,1.74,0,2.6,0,.42.05.8-.58.8s-.62-.32-.61-.76c0-1.45,0-2.89,0-4.34,0-.53-.08-.78-.69-.73a17.3,17.3,0,0,1-2.16,0c-.38,0-.5.1-.5.49,0,1.12,0,2.25,0,3.38,0,.87.42,1.15,1.23,1,.26-.05.58-.32.65.18a.61.61,0,0,1-.43.75,1.83,1.83,0,0,1-2.45-.81,1.87,1.87,0,0,1-.19-.87c-.06-1.12,0-2.25,0-3.38,0-.5,0-.84-.67-.73-.37.06-.52-.18-.52-.52s.1-.55.46-.48c.77.16.74-.3.74-.84,0-.3-.22-.72.27-.89s.95.07.88.72c-.09.83.17,1.1,1,1s1.9,0,2.86,0c.49,0,.67.17.66.66C158.66,38.06,158.67,39,158.67,39.91Z"/><path id="Trazado_21" data-name="Trazado 21" class="cls-1" d="M167.93,42.34c0-2.75,0-5.49,0-8.24,0-.42.05-.79-.59-.79s-.56.42-.56.82v3.06c-1.9-1.3-3.58-1.06-4.35.58a5.07,5.07,0,0,0,0,4.21,2.22,2.22,0,0,0,1.76,1.38,3.17,3.17,0,0,0,2.72-1c0,.5-.1,1,.6,1S167.93,42.68,167.93,42.34Zm-2.11-.26a1.48,1.48,0,0,1-2.09-.21,1.58,1.58,0,0,1-.31-.62,4.43,4.43,0,0,1,0-2.55c.28-1,.85-1.45,1.71-1.36a2,2,0,0,1,1.71,1.84V40a1.85,1.85,0,0,1-1,2.06Z"/><path id="Trazado_22" data-name="Trazado 22" class="cls-1" d="M243.51,43.41a5.09,5.09,0,0,1-1.88-.46c-.3-.16-.54-.35-.53-.72,0-.2-.07-.43.12-.58s.37.05.53.14a3.44,3.44,0,0,0,2.4.52,1.45,1.45,0,0,0,1.3-1.21,1.41,1.41,0,0,0-.81-1.58c-.56-.31-1.14-.56-1.7-.86a2.49,2.49,0,0,1-1.53-3,2.63,2.63,0,0,1,2.87-1.74,4,4,0,0,1,1.58.43.74.74,0,0,1,.39,1l0,.06c-.23.52-.52,0-.75-.07a3.24,3.24,0,0,0-1.59-.34,1.29,1.29,0,0,0-1.25.9,1.23,1.23,0,0,0,.53,1.44,16.41,16.41,0,0,0,1.75.95c1.54.78,2.11,1.73,1.82,3.05S245.26,43.41,243.51,43.41Z"/><path id="Trazado_23" data-name="Trazado 23" class="cls-1" d="M74,38.74a6.6,6.6,0,0,1,.57-2.62,3.92,3.92,0,0,1,5.2-1.89,3.18,3.18,0,0,1,.32.16c.22.13.47.25.56.51s.18.62,0,.84-.46-.07-.66-.18c-2.13-1.31-4.17-.37-4.54,2.1a7.18,7.18,0,0,0,0,2.07,2.81,2.81,0,0,0,3,2.64,2.88,2.88,0,0,0,1.36-.44c.3-.15.67-.77,1-.25s-.13,1-.64,1.22a3.91,3.91,0,0,1-5.38-1.3,3.81,3.81,0,0,1-.53-1.49C74.1,39.66,74.06,39.2,74,38.74Z"/><path id="Trazado_24" data-name="Trazado 24" class="cls-1" d="M205.12,36.89a3,3,0,0,0-.85-.41c-2.49-.75-4.4.74-4.4,3.92a2.85,2.85,0,0,0,1.72,2.74,3.39,3.39,0,0,0,4.2-1.22C206.69,40.33,206.36,37.82,205.12,36.89ZM205,40.7a1.9,1.9,0,0,1-2.07,1.72l-.23,0c-1.07-.17-1.6-1-1.61-2.5,0-1.79.81-2.69,2.29-2.54a1.33,1.33,0,0,1,.34,0c1.08.31,1.63,1.72,1.28,3.31Z"/><path id="Trazado_25" data-name="Trazado 25" class="cls-1" d="M88.48,36.89a2.79,2.79,0,0,0-.85-.41c-2.48-.76-4.4.74-4.4,3.43,0,1.66.57,2.74,1.72,3.23a3.39,3.39,0,0,0,4.2-1.22C90.05,40.33,89.73,37.82,88.48,36.89Zm0,3.26c-.09,1.29-.67,2.08-1.65,2.23-1.47.24-2.35-.72-2.34-2.55s.85-2.66,2.33-2.49a1.86,1.86,0,0,1,.34.07c.92.28,1.42,1.33,1.32,2.74Z"/><path id="Trazado_26" data-name="Trazado 26" class="cls-1" d="M127.47,38.92a2.84,2.84,0,0,0-3-2.61h-.06a3,3,0,0,0-3.15,2.62,6.43,6.43,0,0,0,0,1.64A2.85,2.85,0,0,0,124,43.41,3.08,3.08,0,0,0,127.41,41,5.11,5.11,0,0,0,127.47,38.92Zm-3.38,3.48-.26,0c-1.2-.26-1.81-1.77-1.4-3.46a1.94,1.94,0,0,1,2.22-1.59l.27.06c.91.23,1.42,1.13,1.42,2.5,0,1.7-.85,2.65-2.25,2.52Z"/><path id="Trazado_27" data-name="Trazado 27" class="cls-1" d="M176.21,36.86a2.82,2.82,0,0,0-.78-.38c-2.48-.77-4.41.73-4.42,3.41,0,1.63.54,2.7,1.62,3.21a3.42,3.42,0,0,0,4.29-1.16C177.85,40.32,177.5,37.77,176.21,36.86Zm0,3.22c-.07,1.29-.63,2.1-1.59,2.29-1.47.29-2.4-.66-2.41-2.47s.84-2.75,2.35-2.55a2,2,0,0,1,.34.06c.89.29,1.38,1.28,1.31,2.67Z"/><path id="Trazado_28" data-name="Trazado 28" class="cls-1" d="M277.32,36.83a2.52,2.52,0,0,0-.7-.34c-2.5-.79-4.45.73-4.45,3.46a3.17,3.17,0,0,0,1.52,3.1A3.42,3.42,0,0,0,278.07,42C279,40.33,278.66,37.73,277.32,36.83Zm-2.14,5.57-.35,0c-1.16-.29-1.74-1.75-1.35-3.42a1.91,1.91,0,0,1,2.18-1.62,1.27,1.27,0,0,1,.28.06c.93.21,1.44,1.09,1.45,2.47,0,1.7-.82,2.67-2.21,2.56Z"/><path id="Trazado_29" data-name="Trazado 29" class="cls-1" d="M325.58,36.89a3,3,0,0,0-.85-.41c-2.49-.76-4.4.74-4.4,3.43,0,1.67.57,2.75,1.72,3.23a3.4,3.4,0,0,0,4.2-1.22C327.15,40.33,326.83,37.82,325.58,36.89Zm-.13,3.8a1.9,1.9,0,0,1-2.07,1.72,1.46,1.46,0,0,1-.22,0c-1.07-.17-1.61-1-1.61-2.5,0-1.79.8-2.69,2.28-2.54a1.33,1.33,0,0,1,.34,0c1.08.3,1.63,1.71,1.28,3.31Z"/><path id="Trazado_30" data-name="Trazado 30" class="cls-1" d="M379.35,39a2.83,2.83,0,0,0-3-2.65h-.08a3,3,0,0,0-3.22,2.79v0a6.78,6.78,0,0,0,0,1.56,2.82,2.82,0,0,0,2.7,2.68,3.08,3.08,0,0,0,3.42-2A4.74,4.74,0,0,0,379.35,39Zm-1.24,1.75A1.9,1.9,0,0,1,376,42.42l-.22,0c-1.06-.17-1.6-1-1.6-2.52,0-1.78.82-2.67,2.3-2.52l.35,0C377.93,37.71,378.47,39.12,378.11,40.71Z"/><path id="Trazado_31" data-name="Trazado 31" class="cls-1" d="M251.54,40.1a12.19,12.19,0,0,0,1.48,0c.58,0,1.16,0,1.74,0s.77-.19.77-.76a2.75,2.75,0,0,0-2.21-3,3,3,0,0,0-3.52,2,5.06,5.06,0,0,0-.2,2.15,2.79,2.79,0,0,0,1.59,2.59A4.68,4.68,0,0,0,255,43c.35-.14.32-.48.24-.74-.13-.42-.43-.15-.64-.08a4.44,4.44,0,0,1-2,.28,1.78,1.78,0,0,1-1.69-1.48C250.72,40.33,250.82,40,251.54,40.1ZM251,38.26a1.71,1.71,0,0,1,1.83-1,1.55,1.55,0,0,1,1.46,1.35c.09.45,0,.73-.53.67-.4,0-.8,0-1.21,0h-.95c-.88,0-1-.18-.59-1Z"/><path id="Trazado_32" data-name="Trazado 32" class="cls-1" d="M224.89,40.1a13.53,13.53,0,0,0,1.56,0c.58,0,1.16,0,1.74,0s.75-.25.75-.8a2.74,2.74,0,0,0-2.24-3,3,3,0,0,0-3.48,1.92,5,5,0,0,0-.14,2.74c.45,2.13,3.57,3.24,5.34,1.93a.63.63,0,0,0,.2-.77c-.11-.34-.4-.15-.58-.07a4.41,4.41,0,0,1-2.13.3,1.76,1.76,0,0,1-1.66-1.51C224.14,40.36,224.18,40,224.89,40.1Zm-.36-2a1.71,1.71,0,0,1,1.85-.81,1.54,1.54,0,0,1,1.32,1.3c.12.5,0,.77-.58.7a9.75,9.75,0,0,0-1.21,0,6.62,6.62,0,0,1-.77,0c-.3,0-.71.18-.87-.13s.07-.72.26-1Z"/><path id="Trazado_33" data-name="Trazado 33" class="cls-1" d="M145.83,36.4c-1.6.42-2.41,1.83-2.27,4a2.86,2.86,0,0,0,1.59,2.68,4.68,4.68,0,0,0,3.79-.11c.35-.14.32-.47.25-.74-.12-.43-.43-.16-.63-.09a4.56,4.56,0,0,1-2.13.28A1.74,1.74,0,0,1,144.85,41c-.2-.68-.06-1,.74-.93a10.75,10.75,0,0,0,1.39,0h1.82c.45,0,.67-.17.7-.66A2.83,2.83,0,0,0,147,36.29,2.91,2.91,0,0,0,145.83,36.4Zm1.86,2.85a9.79,9.79,0,0,0-1.21,0,6.77,6.77,0,0,1-.78,0c-.3,0-.71.19-.87-.12s.07-.73.26-1a1.69,1.69,0,0,1,1.85-.81,1.55,1.55,0,0,1,1.33,1.3c.11.5,0,.77-.59.7Z"/><path id="Trazado_34" data-name="Trazado 34" class="cls-1" d="M358.45,42.48c0-1.21,0-2.43,0-3.64,0-1.83-.77-2.55-2.62-2.53a4.9,4.9,0,0,0-1.76.4c-.46.18-.78.51-.54,1s.59,0,.86-.11a3,3,0,0,1,2.1-.21c.75.25.85.91.78,1.55s-.63.3-1,.32a5.81,5.81,0,0,0-2,.4,1.85,1.85,0,0,0-1.11,2.05,1.78,1.78,0,0,0,1.47,1.61,2.94,2.94,0,0,0,2.79-.81c0,.48,0,.85.57.81S358.44,42.8,358.45,42.48Zm-1.14-1.6a1.73,1.73,0,0,1-1.86,1.59,1.58,1.58,0,0,1-.51-.12,1,1,0,0,1-.55-1,1.06,1.06,0,0,1,.6-1,3.74,3.74,0,0,1,2-.22c.52,0,.17.51.28.72Z"/><path id="Trazado_35" data-name="Trazado 35" class="cls-1" d="M210.41,37.35a10.88,10.88,0,0,1,1.2-.8,2.14,2.14,0,0,1,2.92.78,2.27,2.27,0,0,1,.28.88c.14,1.55.05,3.12.08,4.68,0,.46-.32.39-.6.41s-.57-.12-.56-.54c0-1.07,0-2.14,0-3.21a5.25,5.25,0,0,0-.11-1.12,1.29,1.29,0,0,0-1.46-1.08,1.22,1.22,0,0,0-.55.23,1.88,1.88,0,0,0-1.13,1.86c.1,1.07,0,2.14,0,3.21,0,.4,0,.66-.54.66s-.67-.13-.66-.64c0-1.79,0-3.59,0-5.38,0-.38-.14-.83.54-.85S210.29,37,210.41,37.35Z"/><path id="Trazado_36" data-name="Trazado 36" class="cls-1" d="M299.51,37.3c.24-.17.49-.4.78-.58a2.2,2.2,0,0,1,3.08.4,2.15,2.15,0,0,1,.46,1.34c.09,1.44,0,2.89.05,4.33,0,.47-.23.51-.59.52s-.58-.1-.57-.54c0-1.07,0-2.14,0-3.21a5.25,5.25,0,0,0-.1-1.12,1.27,1.27,0,0,0-1.44-1.09,1.3,1.3,0,0,0-.57.23,1.85,1.85,0,0,0-1.13,1.85c.09,1.07,0,2.14,0,3.21,0,.48-.11.69-.62.67s-.58-.19-.58-.63c0-1.85,0-3.7,0-5.55,0-.39,0-.67.53-.68s.54.28.52.65C299.36,37.17,299.31,37.29,299.51,37.3Z"/><path id="Trazado_37" data-name="Trazado 37" class="cls-1" d="M268.68,43.41a1.74,1.74,0,0,1-2-1.43,1.7,1.7,0,0,1,0-.45c0-1.13,0-2.25,0-3.38,0-.43,0-.74-.58-.65s-.55-.18-.55-.56.23-.5.56-.45c.58.1.56-.24.57-.66s-.21-.78.19-1a.62.62,0,0,1,.86.16.61.61,0,0,1,.11.43c-.1.89.18,1.25,1.1,1.11.32,0,.81-.18.83.44s-.42.62-.83.55c-.92-.15-1.18.22-1.1,1.11s0,1.85,0,2.77.42,1.15,1.23,1c.23,0,.52-.32.63.1a.58.58,0,0,1-.29.78l-.12,0C269.05,43.35,268.8,43.39,268.68,43.41Z"/><path id="Trazado_38" data-name="Trazado 38" class="cls-1" d="M182.58,36.32a3.09,3.09,0,0,1,1.34.27.65.65,0,0,1,.4.81.08.08,0,0,0,0,.05c-.18.51-.46.06-.67,0a2.64,2.64,0,0,0-1.27-.21c-.4.09-.79.21-.9.69A.91.91,0,0,0,182,39c.38.19.79.34,1.18.51,1.14.48,1.58,1.1,1.48,2.07s-.77,1.57-1.94,1.78a3.71,3.71,0,0,1-2-.25.75.75,0,0,1-.55-.5.65.65,0,0,1,.07-.66c.2-.21.37,0,.53.1a2.91,2.91,0,0,0,1.66.38,1.08,1.08,0,0,0,1.09-.82c.11-.56-.25-.86-.69-1.08s-.74-.3-1.11-.47c-1.13-.53-1.59-1.28-1.37-2.21A2.1,2.1,0,0,1,182.58,36.32Z"/><path id="Trazado_39" data-name="Trazado 39" class="cls-1" d="M193.44,39.91a2.84,2.84,0,0,0,.45,1.82,1.86,1.86,0,0,0,2.59.23c.22-.13.46-.65.74-.24A.82.82,0,0,1,197,42.8a2.94,2.94,0,0,1-4.12-.48l-.19-.27a4.71,4.71,0,0,1,0-4.28,3,3,0,0,1,4.09-1l.07,0a.88.88,0,0,1,.4.89c0,.35-.2.47-.52.25l-.14-.1c-1.77-1.05-3.07-.34-3.16,1.71C193.43,39.68,193.44,39.8,193.44,39.91Z"/><path id="Trazado_40" data-name="Trazado 40" class="cls-1" d="M258.27,40.14c0-3,1.93-4.48,4.21-3.55.47.2.9.42.83,1.06,0,.39-.16.54-.54.28a3.77,3.77,0,0,0-.84-.45,1.62,1.62,0,0,0-2.16.81,1,1,0,0,0-.1.29,4.17,4.17,0,0,0-.06,2.4c.34,1.36,1.58,1.76,2.88,1,.23-.13.48-.74.8-.24a.84.84,0,0,1-.37,1.12,2.89,2.89,0,0,1-4-.59,2.83,2.83,0,0,1-.54-1.33A7.38,7.38,0,0,1,258.27,40.14Z"/><path id="Trazado_41" data-name="Trazado 41" class="cls-1" d="M233.27,38.41c0,1.41,0,2.82,0,4.24,0,.47-.11.68-.62.66s-.59-.19-.58-.62q0-4.38,0-8.75c0-.44.14-.61.59-.62s.62.2.61.67C233.26,35.46,233.27,36.93,233.27,38.41Z"/><path id="Trazado_42" data-name="Trazado 42" class="cls-1" d="M345,38.3c0,1.44,0,2.89,0,4.33,0,.45-.06.69-.6.69s-.61-.25-.6-.7q0-4.34,0-8.66c0-.51.19-.64.66-.64s.54.24.54.65C345,35.41,345,36.85,345,38.3Z"/><path id="Trazado_43" data-name="Trazado 43" class="cls-1" d="M293.24,38.67c0-1.33,0-2.67,0-4,0-.44.07-.7.6-.7s.64.16.64.66q0,4,0,8c0,.45-.06.7-.59.7s-.65-.26-.64-.74C293.26,41.27,293.24,40,293.24,38.67Z"/><path id="Trazado_44" data-name="Trazado 44" class="cls-1" d="M363.24,37.46c.58-.68,1.11-1.28,2.07-1.13.6.1.64.47.59.93s-.47.25-.72.22a1.89,1.89,0,0,0-1.88,1.82c0,1.12,0,2.25,0,3.37,0,.42-.07.64-.56.64s-.65-.16-.65-.65c0-1.76,0-3.52,0-5.28,0-.38-.23-.91.53-.93S363,37,363.24,37.46Z"/><path id="Trazado_45" data-name="Trazado 45" class="cls-1" d="M282.92,37.45c.56-.6,1-1.22,1.9-1.14.53.06.84.23.79.86s-.52.32-.81.3a1.92,1.92,0,0,0-1.8,1.82c0,1.12,0,2.25,0,3.38,0,.4-.06.65-.55.64s-.67-.14-.66-.64c0-1.76,0-3.53,0-5.29,0-.37-.24-.9.52-.93S282.74,37,282.92,37.45Z"/><path id="Trazado_46" data-name="Trazado 46" class="cls-1" d="M116.4,37.46c.59-.67,1.12-1.28,2.07-1.13.6.1.65.46.6.93s-.46.25-.71.23a1.87,1.87,0,0,0-1.89,1.81c0,1.12,0,2.25,0,3.37,0,.42-.06.65-.55.64s-.66-.15-.65-.65c0-1.76,0-3.52,0-5.28,0-.37-.24-.91.52-.93S116.21,37,116.4,37.46Z"/><path id="Trazado_47" data-name="Trazado 47" class="cls-1" d="M369.9,40c0,.9,0,1.79,0,2.68,0,.47-.1.69-.61.67s-.6-.17-.59-.62c0-1.87,0-3.74,0-5.62,0-.52.22-.62.67-.62s.53.27.53.66C369.89,38.06,369.9,39,369.9,40Z"/><path id="Trazado_48" data-name="Trazado 48" class="cls-1" d="M349.91,39.94c0,.92,0,1.85,0,2.77,0,.45-.14.61-.59.6s-.62-.12-.61-.59c0-1.91,0-3.81,0-5.71,0-.5.25-.55.64-.56s.57.12.56.55C349.89,38,349.91,39,349.91,39.94Z"/><path id="Trazado_49" data-name="Trazado 49" class="cls-1" d="M340.17,40c0,.92,0,1.85,0,2.77,0,.4-.11.58-.53.57s-.68,0-.67-.54q0-2.9,0-5.79c0-.53.31-.51.67-.53s.53.19.53.58C340.16,38,340.17,39,340.17,40Z"/><path id="Trazado_50" data-name="Trazado 50" class="cls-1" d="M158.85,34.46a.68.68,0,0,1-.55.78h-.16a.65.65,0,0,1-.8-.68.63.63,0,0,1,.5-.75.5.5,0,0,1,.21,0C158.52,33.78,158.83,33.94,158.85,34.46Z"/><path id="Trazado_51" data-name="Trazado 51" class="cls-1" d="M339.63,35.25a.63.63,0,0,1-.74-.48.86.86,0,0,1,0-.16c0-.46.11-.79.64-.8s.8.07.83.62S340.2,35.19,339.63,35.25Z"/><path id="Trazado_52" data-name="Trazado 52" class="cls-1" d="M348.62,34.53c0-.5.22-.73.72-.73s.75.18.75.7-.26.72-.73.74S348.61,35,348.62,34.53Z"/><path id="Trazado_53" data-name="Trazado 53" class="cls-1" d="M369.34,33.81c.49,0,.74.19.74.71s-.28.71-.75.72-.73-.23-.73-.72a.62.62,0,0,1,.5-.72A.65.65,0,0,1,369.34,33.81Z"/><path id="Trazado_54" data-name="Trazado 54" class="cls-1" d="M26.43,24.64a1.24,1.24,0,0,1-.66.85C25.82,25.08,26.08,25,26.43,24.64Z"/></g></g></g></svg>